SplineFontDB: 3.2
FontName: Corpus-BoldOblique
FullName: Corpus Bold Oblique 
FamilyName: Corpus
Weight: Bold
Copyright: (c) RISC OS Developments Ltd, released under Apache License 2.0
Version: 1
ItalicAngle: 0
UnderlinePosition: 0
UnderlineWidth: 0
Ascent: 314
Descent: 79
InvalidEm: 0
LayerCount: 2
Layer: 0 0 "Back" 1
Layer: 1 0 "Fore" 0
StyleMap: 0x0021
FSType: 0
OS2Version: 0
OS2_WeightWidthSlopeOnly: 0
OS2_UseTypoMetrics: 0
CreationTime: 1653360704
ModificationTime: 1653360705
PfmFamily: 48
TTFWeight: 700
TTFWidth: 5
LineGap: 35
VLineGap: 35
OS2TypoAscent: 0
OS2TypoAOffset: 1
OS2TypoDescent: 0
OS2TypoDOffset: 1
OS2TypoLinegap: 35
OS2WinAscent: 0
OS2WinAOffset: 1
OS2WinDescent: 0
OS2WinDOffset: 1
HheadAscent: 0
HheadAOffset: 1
HheadDescent: 0
HheadDOffset: 1
DEI: 91125
Encoding: Custom
UnicodeInterp: none
NameList: AGL For New Fonts
DisplaySize: -24
AntiAlias: 1
FitToEm: 0
BeginChars: 480 406

StartChar: exclam
Encoding: 33 33 32
Width: 235
VWidth: 0
Flags: HMW
LayerCount: 2
Fore
SplineSet
149.440429688 228 m 0
 159.015625 226 162.953125 221 162.46484375 214 c 0
 133.108398438 90 l 0
 130.407226562 82 126.344726562 77 117.919921875 75 c 0
 102.919921875 75 l 0
 95.3447265625 77 93.4072265625 82 94.1083984375 90 c 0
 117.46484375 214 l 0
 119.953125 221 126.015625 226 136.440429688 228 c 0
 149.440429688 228 l 0
118.127929688 -4 m 0
 101.001953125 -14 82.001953125 -14 69.33984375 -3 c 0
 56.103515625 10 59.9296875 28 78.267578125 39 c 0
 95.3935546875 49 114.393554688 49 127.0546875 38 c 0
 140.291992188 25 136.465820312 7 118.127929688 -4 c 0
EndSplineSet
EndChar

StartChar: quoteleft
Encoding: 34 8216 33
Width: 235
VWidth: 0
Flags: HMW
LayerCount: 2
Fore
SplineSet
124.901367188 229 m 0
 139.427734375 255 171.727539062 247 156.98828125 220 c 0
 121.259765625 146 l 0
 115.920898438 135 105.220703125 127 91.8583984375 130 c 0
 75.9208984375 135 80.4716796875 147 85.59765625 157 c 0
 124.901367188 229 l 0
EndSplineSet
EndChar

StartChar: quoteright
Encoding: 35 8217 34
Width: 235
VWidth: 0
Flags: HMW
LayerCount: 2
Fore
SplineSet
119.740234375 228 m 0
 125.079101562 239 135.779296875 247 149.141601562 244 c 0
 165.079101562 239 160.528320312 227 155.40234375 217 c 0
 116.098632812 145 l 0
 101.572265625 119 69.2724609375 127 84.01171875 154 c 0
 119.740234375 228 l 0
EndSplineSet
EndChar

StartChar: quotedblleft
Encoding: 36 8220 35
Width: 235
VWidth: 0
Flags: HMW
LayerCount: 2
Fore
SplineSet
118.59765625 157 m 0
 157.901367188 229 l 0
 172.427734375 255 204.727539062 247 189.98828125 220 c 0
 154.259765625 146 l 0
 148.920898438 135 138.220703125 127 124.858398438 130 c 0
 108.920898438 135 113.471679688 147 118.59765625 157 c 0
57.59765625 157 m 0
 96.9013671875 229 l 0
 111.427734375 255 143.727539062 247 128.98828125 220 c 0
 93.259765625 146 l 0
 87.9208984375 135 77.220703125 127 63.8583984375 130 c 0
 47.9208984375 135 52.4716796875 147 57.59765625 157 c 0
EndSplineSet
EndChar

StartChar: quotedblbase
Encoding: 38 8222 37
Width: 235
VWidth: 0
Flags: HMW
LayerCount: 2
Fore
SplineSet
88.0986328125 -59 m 0
 73.572265625 -85 41.2724609375 -77 56.01171875 -50 c 0
 91.740234375 24 l 0
 97.0791015625 35 107.779296875 43 121.141601562 40 c 0
 137.079101562 35 132.528320312 23 127.40234375 13 c 0
 88.0986328125 -59 l 0
149.098632812 -59 m 0
 134.572265625 -85 102.272460938 -77 117.01171875 -50 c 0
 152.740234375 24 l 0
 158.079101562 35 168.779296875 43 182.141601562 40 c 0
 181.716796875 38 l 0
 197.653320312 33 193.528320312 23 188.40234375 13 c 0
 149.098632812 -59 l 0
EndSplineSet
EndChar

StartChar: asciitilde
Encoding: 39 126 38
Width: 235
VWidth: 0
Flags: HMW
LayerCount: 2
Fore
SplineSet
9.87109375 86 m 0
 64.6875 151 89.4990234375 136 130.4609375 117 c 0
 167.634765625 99 171.634765625 99 206.349609375 140 c 0
 218.538085938 155 238.499023438 136 222.248046875 116 c 0
 185.1953125 64 152.982421875 63 111.659179688 85 c 0
 75.3349609375 107 66.3349609375 107 28.7705078125 62 c 0
 14.15625 45 -5.9541015625 68 9.87109375 86 c 0
EndSplineSet
EndChar

StartChar: parenleft
Encoding: 40 40 39
Width: 235
VWidth: 0
Flags: HMW
LayerCount: 2
Fore
SplineSet
134.174804688 -45 m 0
 145.28515625 -68 114.034179688 -88 99.7109375 -66 c 0
 66.3388671875 -16 73.796875 132 161.2890625 219 c 0
 184.965820312 241 207.71484375 221 186.825195312 198 c 0
 127.30859375 125 110.203125 21 134.174804688 -45 c 0
EndSplineSet
EndChar

StartChar: parenright
Encoding: 41 41 40
Width: 235
VWidth: 0
Flags: HMW
LayerCount: 2
Fore
SplineSet
104.825195312 198 m 0
 93.71484375 221 124.965820312 241 139.2890625 219 c 0
 189.796875 132 134.338867188 -16 79.7109375 -66 c 0
 56.0341796875 -88 33.28515625 -68 54.1748046875 -45 c 0
 106.203125 21 133.30859375 125 104.825195312 198 c 0
EndSplineSet
EndChar

StartChar: asterisk
Encoding: 42 42 41
Width: 235
VWidth: 0
Flags: HMW
LayerCount: 2
Fore
SplineSet
49.1357421875 161 m 0
 30.048828125 170 48 198 68.0869140625 189 c 0
 108.048828125 170 l 0
 117.250976562 218 l 0
 122.352539062 242 152.352539062 242 147.250976562 218 c 0
 135.048828125 170 l 0
 184.086914062 189 l 0
 208 198 214.048828125 170 191.135742188 161 c 0
 137.947265625 146 l 0
 160.5078125 111 l 0
 171.256835938 91 143.643554688 74 132.681640625 93 c 0
 113.758789062 131 l 0
 78.681640625 93 l 0
 59.6435546875 74 39.2568359375 91 58.5078125 111 c 0
 92.734375 145 l 0
 49.1357421875 161 l 0
EndSplineSet
EndChar

StartChar: sterling
Encoding: 43 163 42
Width: 235
VWidth: 0
Flags: HMW
LayerCount: 2
Fore
SplineSet
39.552734375 98 m 0
 23.552734375 98 29.0791015625 124 45.0791015625 124 c 0
 61.0791015625 124 l 0
 69.5810546875 164 l 0
 72.76953125 179 78.595703125 197 100.208984375 214 c 0
 128.885742188 236 192.248046875 233 205.083984375 204 c 0
 218.919921875 175 204.243164062 153 185.243164062 153 c 0
 157.243164062 153 167.76953125 179 164.2578125 186 c 0
 159.020507812 199 136.80859375 198 124.895507812 189 c 0
 113.982421875 180 110.856445312 170 109.793945312 165 c 0
 101.079101562 124 l 0
 129.079101562 124 l 0
 145.079101562 124 139.552734375 98 123.552734375 98 c 0
 95.552734375 98 l 0
 81.0986328125 30 l 0
 161.098632812 30 l 0
 185.098632812 30 178.72265625 0 154.72265625 0 c 0
 19.72265625 0 l 0
 -4.27734375 0 2.0986328125 30 26.0986328125 30 c 0
 41.0986328125 30 l 0
 55.552734375 98 l 0
 39.552734375 98 l 0
EndSplineSet
EndChar

StartChar: comma
Encoding: 44 44 43
Width: 235
VWidth: 0
Flags: HMW
LayerCount: 2
Fore
SplineSet
87.8115234375 -61 m 0
 80.8984375 -70 74.3232421875 -68 63.5986328125 -62 c 0
 56.6611328125 -57 50.298828125 -54 56.6376953125 -43 c 0
 98.5166015625 27 l 0
 103.216796875 35 103.4921875 41 119.4921875 41 c 0
 145.4921875 41 l 0
 155.4921875 41 153.791992188 33 149.303710938 26 c 0
 87.8115234375 -61 l 0
EndSplineSet
EndChar

StartChar: hyphen
Encoding: 45 45 44
Width: 235
VWidth: 0
Flags: HMW
LayerCount: 2
Fore
SplineSet
84.85546875 72 m 0
 69.85546875 72 79.14453125 111 93.14453125 111 c 0
 153.14453125 111 l 0
 167.14453125 111 159.85546875 72 144.85546875 72 c 0
 84.85546875 72 l 0
EndSplineSet
EndChar

StartChar: period
Encoding: 46 46 45
Width: 235
VWidth: 0
Flags: HMW
LayerCount: 2
Fore
SplineSet
97.5703125 39 m 0
 114.6953125 49 133.6953125 49 146.357421875 38 c 0
 159.59375 25 155.768554688 7 137.4296875 -4 c 0
 120.3046875 -14 101.3046875 -14 88.642578125 -3 c 0
 75.40625 10 79.2314453125 28 97.5703125 39 c 0
EndSplineSet
EndChar

StartChar: zero
Encoding: 48 48 47
Width: 235
VWidth: 0
Flags: HMW
LayerCount: 2
Fore
SplineSet
159.216796875 199 m 0
 151.830078125 216 129.830078125 216 113.216796875 199 c 0
 84.6279296875 168 64.521484375 64 78.357421875 35 c 0
 87.744140625 18 109.744140625 18 124.357421875 35 c 0
 150.521484375 64 174.627929688 168 159.216796875 199 c 0
143.89453125 14 m 0
 114.155273438 -13 69.1552734375 -13 49.89453125 14 c 0
 19.2470703125 58 44.328125 176 94.10546875 222 c 0
 124.844726562 249 169.844726562 249 188.10546875 222 c 0
 218.328125 176 193.247070312 58 143.89453125 14 c 0
EndSplineSet
EndChar

StartChar: one
Encoding: 49 49 48
Width: 235
VWidth: 0
Flags: HMW
LayerCount: 2
Fore
SplineSet
149.91796875 0 m 0
 36.91796875 0 l 0
 12.91796875 0 19.294921875 30 43.294921875 30 c 0
 80.294921875 30 l 0
 117.705078125 206 l 0
 94.705078125 206 l 0
 70.705078125 206 77.08203125 236 101.08203125 236 c 0
 156.08203125 236 l 0
 160.08203125 236 163.018554688 231 162.168945312 227 c 0
 120.294921875 30 l 0
 156.294921875 30 l 0
 180.294921875 30 173.91796875 0 149.91796875 0 c 0
EndSplineSet
EndChar

StartChar: two
Encoding: 50 50 49
Width: 235
VWidth: 0
Flags: HMW
LayerCount: 2
Fore
SplineSet
153.665039062 30 m 0
 158.766601562 54 188.766601562 54 183.665039062 30 c 0
 180.263671875 14 l 0
 178.350585938 5 172.288085938 0 165.288085938 0 c 0
 21.2880859375 0 l 0
 6.2880859375 0 5.6259765625 11 17.751953125 21 c 0
 124.244140625 108 l 0
 163.470703125 142 179.209960938 169 171.162109375 197 c 0
 164.837890625 219 131.200195312 216 109.374023438 198 c 0
 98.2490234375 188 85.634765625 171 72.9736328125 182 c 0
 62.736328125 195 83.1376953125 211 91.625 218 c 0
 142.915039062 257 190.15234375 244 205.924804688 210 c 0
 216.823242188 186 210.108398438 145 169.094726562 112 c 0
 71.6650390625 30 l 0
 153.665039062 30 l 0
EndSplineSet
EndChar

StartChar: three
Encoding: 51 51 50
Width: 235
VWidth: 0
Flags: HMW
LayerCount: 2
Fore
SplineSet
112.513671875 111 m 0
 88.513671875 111 94.890625 141 118.890625 141 c 0
 136.890625 141 164.204101562 166 154.005859375 198 c 0
 148.682617188 220 108.194335938 213 88.1552734375 194 c 0
 66.904296875 174 52.79296875 197 71.4072265625 214 c 0
 100.145507812 241 164.971679688 259 188.256835938 218 c 0
 205.305664062 190 188.653320312 154 152.33984375 129 c 0
 187.513671875 111 200.01171875 71 157.383789062 21 c 0
 129.15625 -13 58.9443359375 -14 27.470703125 12 c 0
 13.80859375 23 30.3349609375 49 46.421875 40 c 0
 69.296875 30 94.044921875 10 123.572265625 36 c 0
 152.885742188 61 149.513671875 111 112.513671875 111 c 0
EndSplineSet
EndChar

StartChar: four
Encoding: 52 52 51
Width: 235
VWidth: 0
Flags: HMW
LayerCount: 2
Fore
SplineSet
153.188476562 193 m 0
 71.0830078125 89 l 0
 131.083007812 89 l 0
 153.188476562 193 l 0
112.541992188 30 m 0
 118.541992188 30 l 0
 124.706054688 59 l 0
 38.7060546875 59 l 0
 26.7060546875 59 21.83203125 69 31.3818359375 81 c 0
 156.541015625 237 l 0
 176.85546875 262 205.729492188 252 203.178710938 240 c 0
 171.083007812 89 l 0
 195.083007812 89 188.706054688 59 164.706054688 59 c 0
 158.541992188 30 l 0
 182.541992188 30 176.165039062 0 152.165039062 0 c 0
 106.165039062 0 l 0
 82.1650390625 0 88.5419921875 30 112.541992188 30 c 0
EndSplineSet
EndChar

StartChar: five
Encoding: 53 53 52
Width: 235
VWidth: 0
Flags: HMW
LayerCount: 2
Fore
SplineSet
133.833984375 38 m 0
 152.235351562 54 158.88671875 90 149.075195312 105 c 0
 137.263671875 120 113.114257812 124 87.775390625 113 c 0
 77.5 107 70.2880859375 106 61.2880859375 106 c 0
 52.2880859375 106 46.92578125 109 52.3896484375 130 c 0
 74.794921875 226 l 0
 76.0703125 232 81.919921875 236 87.919921875 236 c 0
 196.919921875 236 l 0
 220.919921875 236 214.543945312 206 190.543945312 206 c 0
 110.543945312 206 l 0
 94.7275390625 141 l 0
 122.490234375 154 168.065429688 152 184.4765625 121 c 0
 200.88671875 90 192.747070312 47 156.158203125 16 c 0
 118.35546875 -16 54.78125 -14 25.0947265625 11 c 0
 13.220703125 21 30.9599609375 48 46.4091796875 36 c 0
 64.220703125 21 106.307617188 12 133.833984375 38 c 0
EndSplineSet
EndChar

StartChar: six
Encoding: 54 54 53
Width: 235
VWidth: 0
Flags: HMW
LayerCount: 2
Fore
SplineSet
143.751953125 94 m 0
 136.640625 117 106.278320312 120 87.3896484375 97 c 0
 73.7763671875 80 68.099609375 58 75.69921875 42 c 0
 85.4482421875 22 106.384765625 17 128.848632812 38 c 0
 143.612304688 51 149.712890625 75 143.751953125 94 c 0
148.53515625 13 m 0
 114.583007812 -15 44.7958984375 -14 36.76171875 47 c 0
 29.302734375 106 52.306640625 186 125.234375 228 c 0
 149.209960938 242 182.060546875 246 204.360351562 238 c 0
 217.509765625 234 209.0703125 199 182.408203125 210 c 0
 171.258789062 214 156.408203125 210 137.0703125 199 c 0
 106.032226562 180 90.29296875 153 82.703125 122 c 0
 117.504882812 154 164.442382812 149 177.491210938 121 c 0
 192.689453125 89 182.69921875 42 148.53515625 13 c 0
EndSplineSet
EndChar

StartChar: seven
Encoding: 55 55 54
Width: 235
VWidth: 0
Flags: HMW
LayerCount: 2
Fore
SplineSet
98.1787109375 2 m 0
 88.3525390625 -16 48.0537109375 -8 62.9423828125 15 c 0
 179.540039062 206 l 0
 94.5400390625 206 l 0
 90.0771484375 185 59.0771484375 185 62.6904296875 202 c 0
 67.7919921875 226 l 0
 69.279296875 233 75.9169921875 236 82.9169921875 236 c 0
 209.916992188 236 l 0
 216.916992188 236 224.854492188 231 220.94140625 222 c 0
 98.1787109375 2 l 0
EndSplineSet
EndChar

StartChar: eight
Encoding: 56 56 55
Width: 235
VWidth: 0
Flags: HMW
LayerCount: 2
Fore
SplineSet
152.262695312 157 m 0
 163.813476562 169 166.790039062 183 161.190429688 199 c 0
 153.803710938 216 125.803710938 216 111.190429688 199 c 0
 98.7900390625 183 95.8134765625 169 102.262695312 157 c 0
 109.649414062 140 137.649414062 140 152.262695312 157 c 0
164.41796875 26 m 0
 129.278320312 -17 50.2783203125 -17 33.41796875 26 c 0
 18.283203125 63 39.4853515625 111 88.3115234375 129 c 0
 57.712890625 145 51.3642578125 181 75.7412109375 211 c 0
 108.668945312 253 186.668945312 253 201.741210938 211 c 0
 213.364257812 181 190.712890625 145 153.311523438 129 c 0
 194.485351562 111 195.283203125 63 164.41796875 26 c 0
129.756835938 37 m 0
 150.219726562 58 153.74609375 84 143.360351562 101 c 0
 133.973632812 118 102.973632812 118 86.3603515625 101 c 0
 68.74609375 84 61.2197265625 58 72.7568359375 37 c 0
 82.35546875 21 113.35546875 21 129.756835938 37 c 0
EndSplineSet
EndChar

StartChar: nine
Encoding: 57 57 56
Width: 235
VWidth: 0
Flags: HMW
LayerCount: 2
Fore
SplineSet
96.1416015625 142 m 0
 103.252929688 119 133.615234375 116 152.50390625 139 c 0
 166.1171875 156 172.006835938 179 164.407226562 195 c 0
 154.658203125 215 133.721679688 220 111.2578125 199 c 0
 96.494140625 186 90.1806640625 161 96.1416015625 142 c 0
91.5712890625 224 m 0
 125.5234375 252 195.310546875 251 203.344726562 190 c 0
 210.803710938 131 187.586914062 50 114.659179688 8 c 0
 90.68359375 -6 57.8330078125 -10 35.5341796875 -2 c 0
 22.3837890625 2 30.8232421875 37 57.4853515625 26 c 0
 68.634765625 22 83.4853515625 26 102.823242188 37 c 0
 133.862304688 56 149.600585938 83 157.190429688 114 c 0
 122.388671875 82 75.451171875 87 62.40234375 115 c 0
 47.205078125 147 57.4072265625 195 91.5712890625 224 c 0
EndSplineSet
EndChar

StartChar: colon
Encoding: 58 58 57
Width: 235
VWidth: 0
Flags: HMW
LayerCount: 2
Fore
SplineSet
136.048828125 38 m 0
 149.28515625 25 145.458984375 7 127.12109375 -4 c 0
 109.995117188 -14 90.9951171875 -14 78.333984375 -3 c 0
 65.0966796875 10 68.9228515625 28 87.2607421875 39 c 0
 104.38671875 49 123.38671875 49 136.048828125 38 c 0
147.739257812 93 m 0
 130.61328125 83 111.61328125 83 98.951171875 94 c 0
 85.71484375 107 89.541015625 125 107.87890625 136 c 0
 125.004882812 146 144.004882812 146 156.666015625 135 c 0
 169.903320312 122 166.077148438 104 147.739257812 93 c 0
EndSplineSet
EndChar

StartChar: semicolon
Encoding: 59 59 58
Width: 235
VWidth: 0
Flags: HMW
LayerCount: 2
Fore
SplineSet
162.591796875 135 m 0
 175.828125 122 172.001953125 104 153.6640625 93 c 0
 136.5390625 83 117.5390625 83 104.876953125 94 c 0
 91.6396484375 107 95.4658203125 125 113.803710938 136 c 0
 130.9296875 146 149.9296875 146 162.591796875 135 c 0
45.7568359375 -43 m 0
 87.6357421875 27 l 0
 92.3359375 35 92.611328125 41 108.611328125 41 c 0
 134.611328125 41 l 0
 144.611328125 41 142.911132812 33 138.422851562 26 c 0
 76.9306640625 -61 l 0
 70.017578125 -70 63.4423828125 -68 52.7177734375 -62 c 0
 45.7802734375 -57 39.41796875 -54 45.7568359375 -43 c 0
EndSplineSet
EndChar

StartChar: quotesingle
Encoding: 60 39 59
Width: 235
VWidth: 0
Flags: HMW
LayerCount: 2
Fore
SplineSet
95.6181640625 219 m 0
 97.3818359375 232 147.381835938 232 143.618164062 219 c 0
 120.975585938 136 l 0
 115.086914062 113 79.0869140625 113 82.9755859375 136 c 0
 95.6181640625 219 l 0
EndSplineSet
EndChar

StartChar: equal
Encoding: 61 61 60
Width: 235
VWidth: 0
Flags: HMW
LayerCount: 2
Fore
SplineSet
177.869140625 104 m 0
 59.869140625 104 l 0
 35.869140625 104 42.24609375 134 66.24609375 134 c 0
 184.24609375 134 l 0
 208.24609375 134 201.869140625 104 177.869140625 104 c 0
165.75390625 47 m 0
 47.75390625 47 l 0
 23.75390625 47 30.130859375 77 54.130859375 77 c 0
 172.130859375 77 l 0
 196.130859375 77 189.75390625 47 165.75390625 47 c 0
EndSplineSet
EndChar

StartChar: quotedbl
Encoding: 62 34 61
Width: 235
VWidth: 0
Flags: HMW
LayerCount: 2
Fore
SplineSet
137.698242188 219 m 0
 138.973632812 225 148.611328125 228 163.611328125 228 c 0
 178.611328125 228 186.973632812 225 185.698242188 219 c 0
 163.055664062 136 l 0
 157.166992188 113 121.166992188 113 125.055664062 136 c 0
 137.698242188 219 l 0
120.698242188 219 m 0
 98.0556640625 136 l 0
 92.1669921875 113 56.1669921875 113 60.0556640625 136 c 0
 72.6982421875 219 l 0
 73.9736328125 225 83.611328125 228 98.611328125 228 c 0
 113.611328125 228 121.973632812 225 120.698242188 219 c 0
EndSplineSet
EndChar

StartChar: question
Encoding: 63 63 62
Width: 235
VWidth: 0
Flags: HMW
LayerCount: 2
Fore
SplineSet
64.27734375 -3 m 0
 51.0400390625 10 54.8662109375 28 73.2041015625 39 c 0
 90.330078125 49 109.330078125 49 121.9921875 38 c 0
 135.228515625 25 131.40234375 7 113.064453125 -4 c 0
 95.9384765625 -14 76.9384765625 -14 64.27734375 -3 c 0
191.333984375 129 m 0
 178.146484375 114 140.745117188 98 123.89453125 94 c 0
 121.76953125 84 l 0
 116.66796875 60 86.66796875 60 91.76953125 84 c 0
 95.3828125 101 l 0
 98.5712890625 116 110.571289062 116 122.571289062 116 c 0
 133.99609375 118 146.484375 125 153.184570312 133 c 0
 172.223632812 152 171.899414062 174 161.663085938 187 c 0
 149.850585938 202 120.063476562 203 92.875 188 c 0
 87.7734375 164 57.7734375 164 62.875 188 c 0
 67.3388671875 209 l 0
 69.6767578125 220 90.1025390625 222 122.165039062 227 c 0
 176.440429688 233 190.889648438 221 201.338867188 209 c 0
 216.512695312 191 216.286132812 157 191.333984375 129 c 0
EndSplineSet
EndChar

StartChar: acute
Encoding: 64 180 63
Width: 235
VWidth: 0
Flags: HMW
LayerCount: 2
Fore
SplineSet
155.568359375 264 m 0
 167.8046875 251 l 0
 174.31640625 244 171.041015625 238 161.553710938 231 c 0
 115.6015625 203 l 0
 103.114257812 196 92.4521484375 207 101.578125 217 c 0
 138.717773438 260 l 0
 144.780273438 265 151.206054688 267 155.568359375 264 c 0
EndSplineSet
EndChar

StartChar: A
Encoding: 65 65 64
Width: 235
VWidth: 0
Flags: HMW
LayerCount: 2
Fore
SplineSet
190.299804688 0 m 0
 139.299804688 0 l 0
 115.299804688 0 121.676757812 30 145.676757812 30 c 0
 157.676757812 30 l 0
 150.903320312 64 l 0
 66.9033203125 64 l 0
 44.6767578125 30 l 0
 56.6767578125 30 l 0
 80.6767578125 30 74.2998046875 0 50.2998046875 0 c 0
 -0.7001953125 0 l 0
 -24.7001953125 0 -18.3232421875 30 4.6767578125 30 c 0
 107.323242188 193 l 0
 76.3232421875 193 l 0
 52.3232421875 193 58.7001953125 223 82.7001953125 223 c 0
 153.700195312 223 l 0
 163.700195312 223 165.787109375 214 167.874023438 205 c 0
 197.676757812 30 l 0
 220.676757812 30 214.299804688 0 190.299804688 0 c 0
147.280273438 94 m 0
 133.647460938 171 l 0
 85.2802734375 94 l 0
 147.280273438 94 l 0
EndSplineSet
EndChar

StartChar: B
Encoding: 66 66 65
Width: 235
VWidth: 0
Flags: HMW
LayerCount: 2
Fore
SplineSet
147.323242188 193 m 0
 103.323242188 193 l 0
 89.7197265625 129 l 0
 129.719726562 129 l 0
 180.719726562 129 192.323242188 193 147.323242188 193 c 0
117.676757812 30 m 0
 173.676757812 30 194.342773438 99 132.342773438 99 c 0
 83.3427734375 99 l 0
 68.6767578125 30 l 0
 117.676757812 30 l 0
165.700195312 223 m 0
 234.700195312 223 230.395507812 151 177.806640625 120 c 0
 241.067382812 93 201.299804688 0 120.299804688 0 c 0
 17.2998046875 0 l 0
 -6.7001953125 0 -0.3232421875 30 23.6767578125 30 c 0
 28.6767578125 30 l 0
 63.3232421875 193 l 0
 58.3232421875 193 l 0
 34.3232421875 193 40.7001953125 223 64.7001953125 223 c 0
 165.700195312 223 l 0
EndSplineSet
EndChar

StartChar: C
Encoding: 67 67 66
Width: 235
VWidth: 0
Flags: HMW
LayerCount: 2
Fore
SplineSet
99.5224609375 180 m 0
 66.9951171875 154 41.029296875 93 69.46484375 48 c 0
 90.4501953125 15 142.087890625 18 181.952148438 55 c 0
 199.353515625 71 213.802734375 59 202.401367188 43 c 0
 146.373046875 -23 58.7109375 -12 31.36328125 24 c 0
 -6.796875 75 24.5458984375 166 81.8359375 205 c 0
 126.212890625 235 171.212890625 235 196.8984375 210 c 0
 202 234 232 234 226.8984375 210 c 0
 216.05859375 159 l 0
 210.95703125 135 180.95703125 135 186.05859375 159 c 0
 187.12109375 164 183.522460938 180 173.22265625 188 c 0
 154.623046875 204 126.985351562 201 99.5224609375 180 c 0
EndSplineSet
EndChar

StartChar: D
Encoding: 68 68 67
Width: 235
VWidth: 0
Flags: HMW
LayerCount: 2
Fore
SplineSet
127.323242188 193 m 0
 89.3232421875 193 l 0
 54.6767578125 30 l 0
 92.6767578125 30 l 0
 108.676757812 30 121.52734375 34 135.65234375 44 c 0
 173.75390625 68 192.18359375 150 164.34765625 179 c 0
 154.47265625 189 143.323242188 193 127.323242188 193 c 0
95.2998046875 0 m 0
 8.2998046875 0 l 0
 -15.7001953125 0 -9.3232421875 30 14.6767578125 30 c 0
 49.3232421875 193 l 0
 25.3232421875 193 31.7001953125 223 55.7001953125 223 c 0
 142.700195312 223 l 0
 176.700195312 223 199.51171875 208 212.497070312 175 c 0
 225.908203125 144 216.791992188 87 185.502929688 48 c 0
 158.48828125 15 129.299804688 0 95.2998046875 0 c 0
EndSplineSet
EndChar

StartChar: E
Encoding: 69 69 68
Width: 235
VWidth: 0
Flags: HMW
LayerCount: 2
Fore
SplineSet
152.705078125 96 m 0
 147.604492188 72 117.604492188 72 122.705078125 96 c 0
 124.193359375 103 l 0
 84.193359375 103 l 0
 68.6767578125 30 l 0
 159.676757812 30 l 0
 166.053710938 60 l 0
 171.154296875 84 201.154296875 84 196.053710938 60 c 0
 186.275390625 14 l 0
 183.9375 3 181.299804688 0 171.299804688 0 c 0
 13.2998046875 0 l 0
 -10.7001953125 0 -4.3232421875 30 19.6767578125 30 c 0
 28.6767578125 30 l 0
 63.3232421875 193 l 0
 54.3232421875 193 l 0
 30.3232421875 193 36.7001953125 223 60.7001953125 223 c 0
 218.700195312 223 l 0
 228.700195312 223 230.0625 220 227.724609375 209 c 0
 218.372070312 165 l 0
 213.270507812 141 183.270507812 141 188.372070312 165 c 0
 194.323242188 193 l 0
 103.323242188 193 l 0
 90.5703125 133 l 0
 130.5703125 133 l 0
 131.6328125 138 l 0
 136.734375 162 166.734375 162 161.6328125 138 c 0
 152.705078125 96 l 0
EndSplineSet
EndChar

StartChar: F
Encoding: 70 70 69
Width: 235
VWidth: 0
Flags: HMW
LayerCount: 2
Fore
SplineSet
122.705078125 96 m 0
 124.193359375 103 l 0
 84.193359375 103 l 0
 68.6767578125 30 l 0
 95.6767578125 30 l 0
 119.676757812 30 113.299804688 0 89.2998046875 0 c 0
 13.2998046875 0 l 0
 -10.7001953125 0 -4.3232421875 30 19.6767578125 30 c 0
 28.6767578125 30 l 0
 63.3232421875 193 l 0
 54.3232421875 193 l 0
 30.3232421875 193 36.7001953125 223 60.7001953125 223 c 0
 218.700195312 223 l 0
 227.700195312 223 230.275390625 221 227.724609375 209 c 0
 216.458984375 156 l 0
 211.357421875 132 181.357421875 132 186.458984375 156 c 0
 194.323242188 193 l 0
 103.323242188 193 l 0
 90.5703125 133 l 0
 130.5703125 133 l 0
 131.6328125 138 l 0
 136.734375 162 166.734375 162 161.6328125 138 c 0
 152.705078125 96 l 0
 147.604492188 72 117.604492188 72 122.705078125 96 c 0
EndSplineSet
EndChar

StartChar: G
Encoding: 71 71 70
Width: 235
VWidth: 0
Flags: HMW
LayerCount: 2
Fore
SplineSet
130.631835938 77 m 0
 106.631835938 77 113.008789062 107 137.008789062 107 c 0
 205.008789062 107 l 0
 229.008789062 107 220.631835938 77 198.631835938 77 c 0
 185.87890625 17 l 0
 121.013671875 -20 42.3525390625 -9 21.5546875 39 c 0
 1.544921875 86 26.3994140625 170 76.626953125 204 c 0
 119.791015625 233 176.215820312 235 197.540039062 213 c 0
 202.002929688 234 232.002929688 234 226.90234375 210 c 0
 217.76171875 167 l 0
 212.661132812 143 182.661132812 143 187.76171875 167 c 0
 194.076171875 192 137.02734375 220 91.8876953125 177 c 0
 59.0859375 145 51.4580078125 95 58.443359375 62 c 0
 66.7919921875 26 107.666015625 16 158.854492188 31 c 0
 168.631835938 77 l 0
 130.631835938 77 l 0
EndSplineSet
EndChar

StartChar: H
Encoding: 72 72 71
Width: 235
VWidth: 0
Flags: HMW
LayerCount: 2
Fore
SplineSet
173.299804688 0 m 0
 133.299804688 0 l 0
 109.299804688 0 115.676757812 30 139.676757812 30 c 0
 155.193359375 103 l 0
 79.193359375 103 l 0
 63.6767578125 30 l 0
 87.6767578125 30 81.2998046875 0 57.2998046875 0 c 0
 17.2998046875 0 l 0
 -6.7001953125 0 -0.3232421875 30 23.6767578125 30 c 0
 58.3232421875 193 l 0
 34.3232421875 193 40.7001953125 223 64.7001953125 223 c 0
 104.700195312 223 l 0
 128.700195312 223 122.323242188 193 98.3232421875 193 c 0
 85.5703125 133 l 0
 161.5703125 133 l 0
 174.323242188 193 l 0
 150.323242188 193 156.700195312 223 180.700195312 223 c 0
 220.700195312 223 l 0
 244.700195312 223 238.323242188 193 214.323242188 193 c 0
 179.676757812 30 l 0
 203.676757812 30 197.299804688 0 173.299804688 0 c 0
EndSplineSet
EndChar

StartChar: I
Encoding: 73 73 72
Width: 235
VWidth: 0
Flags: HMW
LayerCount: 2
Fore
SplineSet
161.299804688 0 m 0
 29.2998046875 0 l 0
 5.2998046875 0 11.6767578125 30 35.6767578125 30 c 0
 81.6767578125 30 l 0
 116.323242188 193 l 0
 70.3232421875 193 l 0
 46.3232421875 193 52.7001953125 223 76.7001953125 223 c 0
 208.700195312 223 l 0
 232.700195312 223 226.323242188 193 202.323242188 193 c 0
 156.323242188 193 l 0
 121.676757812 30 l 0
 167.676757812 30 l 0
 191.676757812 30 185.299804688 0 161.299804688 0 c 0
EndSplineSet
EndChar

StartChar: J
Encoding: 74 74 73
Width: 235
VWidth: 0
Flags: HMW
LayerCount: 2
Fore
SplineSet
2.7978515625 28 m 0
 14.48828125 83 l 0
 19.58984375 107 49.58984375 107 44.48828125 83 c 0
 42.150390625 72 l 0
 39.38671875 59 38.6865234375 51 42.560546875 41 c 0
 50.947265625 24 89.671875 18 113.135742188 39 c 0
 121.624023438 46 126.111328125 53 130.788085938 75 c 0
 155.869140625 193 l 0
 109.869140625 193 l 0
 85.869140625 193 92.24609375 223 116.24609375 223 c 0
 227.24609375 223 l 0
 251.24609375 223 244.869140625 193 220.869140625 193 c 0
 195.869140625 193 l 0
 170.788085938 75 l 0
 168.450195312 64 163.498046875 36 133.609375 13 c 0
 103.5078125 -11 28.4453125 -16 2.7978515625 28 c 0
EndSplineSet
EndChar

StartChar: K
Encoding: 75 75 74
Width: 235
VWidth: 0
Flags: HMW
LayerCount: 2
Fore
SplineSet
174.323242188 193 m 0
 150.323242188 193 156.700195312 223 180.700195312 223 c 0
 230.700195312 223 l 0
 254.700195312 223 248.323242188 193 224.323242188 193 c 0
 215.323242188 193 l 0
 134.719726562 129 l 0
 174.91796875 97 167.627929688 58 182.676757812 30 c 0
 189.676757812 30 l 0
 213.676757812 30 207.299804688 0 183.299804688 0 c 0
 157.299804688 0 l 0
 138.763671875 21 136.705078125 96 104.831054688 106 c 0
 82.0048828125 88 l 0
 69.6767578125 30 l 0
 80.6767578125 30 l 0
 104.676757812 30 98.2998046875 0 74.2998046875 0 c 0
 12.2998046875 0 l 0
 -11.7001953125 0 -5.3232421875 30 18.6767578125 30 c 0
 29.6767578125 30 l 0
 64.3232421875 193 l 0
 53.3232421875 193 l 0
 29.3232421875 193 35.7001953125 223 59.7001953125 223 c 0
 121.700195312 223 l 0
 145.700195312 223 139.323242188 193 115.323242188 193 c 0
 104.323242188 193 l 0
 89.869140625 125 l 0
 174.323242188 193 l 0
EndSplineSet
EndChar

StartChar: L
Encoding: 76 76 75
Width: 235
VWidth: 0
Flags: HMW
LayerCount: 2
Fore
SplineSet
174.299804688 0 m 0
 9.2998046875 0 l 0
 -14.7001953125 0 -8.3232421875 30 15.6767578125 30 c 0
 35.6767578125 30 l 0
 70.3232421875 193 l 0
 50.3232421875 193 l 0
 26.3232421875 193 32.7001953125 223 56.7001953125 223 c 0
 145.700195312 223 l 0
 169.700195312 223 163.323242188 193 139.323242188 193 c 0
 110.323242188 193 l 0
 75.6767578125 30 l 0
 164.676757812 30 l 0
 175.942382812 83 l 0
 181.043945312 107 211.043945312 107 205.942382812 83 c 0
 191.701171875 16 l 0
 189.150390625 4 185.299804688 0 174.299804688 0 c 0
EndSplineSet
EndChar

StartChar: M
Encoding: 77 77 76
Width: 235
VWidth: 0
Flags: HMW
LayerCount: 2
Fore
SplineSet
-3.7001953125 0 m 0
 -27.7001953125 0 -21.3232421875 30 2.6767578125 30 c 0
 43.3232421875 193 l 0
 19.3232421875 193 25.7001953125 223 49.7001953125 223 c 0
 89.7001953125 223 l 0
 93.7001953125 223 95.849609375 219 96.787109375 214 c 0
 111.493164062 95 l 0
 176.787109375 214 l 0
 179.849609375 219 183.700195312 223 187.700195312 223 c 0
 227.700195312 223 l 0
 251.700195312 223 245.323242188 193 221.323242188 193 c 0
 192.676757812 30 l 0
 199.676757812 30 l 0
 223.676757812 30 217.299804688 0 193.299804688 0 c 0
 146.299804688 0 l 0
 122.299804688 0 128.676757812 30 152.676757812 30 c 0
 175.796875 167 l 0
 117.69140625 63 l 0
 109.290039062 47 88.0771484375 46 86.69140625 63 c 0
 69.4345703125 170 l 0
 35.6767578125 30 l 0
 42.6767578125 30 l 0
 66.6767578125 30 60.2998046875 0 36.2998046875 0 c 0
 -3.7001953125 0 l 0
EndSplineSet
EndChar

StartChar: N
Encoding: 78 78 77
Width: 235
VWidth: 0
Flags: HMW
LayerCount: 2
Fore
SplineSet
224.854492188 193 m 0
 185.319335938 7 l 0
 183.40625 -2 179.768554688 -5 163.768554688 -5 c 0
 152.981445312 -4 151.256835938 2 149.319335938 7 c 0
 90.65234375 145 l 0
 66.2080078125 30 l 0
 77.2080078125 30 l 0
 101.208007812 30 94.8310546875 0 70.8310546875 0 c 0
 12.8310546875 0 l 0
 -11.1689453125 0 -4.7919921875 30 19.2080078125 30 c 0
 26.2080078125 30 l 0
 60.8544921875 193 l 0
 52.8544921875 193 l 0
 28.8544921875 193 35.2314453125 223 59.2314453125 223 c 0
 88.2314453125 223 l 0
 96.2314453125 223 98.59375 220 100.318359375 214 c 0
 160.411132812 78 l 0
 184.854492188 193 l 0
 176.854492188 193 l 0
 152.854492188 193 159.231445312 223 183.231445312 223 c 0
 231.231445312 223 l 0
 255.231445312 223 248.854492188 193 224.854492188 193 c 0
EndSplineSet
EndChar

StartChar: O
Encoding: 79 79 78
Width: 235
VWidth: 0
Flags: HMW
LayerCount: 2
Fore
SplineSet
171.859375 172 m 0
 158.298828125 207 120.298828125 207 91.859375 172 c 0
 60.7822265625 134 51.2177734375 89 66.140625 51 c 0
 79.701171875 16 117.701171875 16 146.140625 51 c 0
 177.217773438 89 186.782226562 134 171.859375 172 c 0
206.173828125 197 m 0
 238.608398438 152 221.391601562 71 169.826171875 26 c 0
 123.111328125 -15 61.111328125 -15 31.826171875 26 c 0
 -0.6083984375 71 16.6083984375 152 68.173828125 197 c 0
 114.888671875 238 176.888671875 238 206.173828125 197 c 0
EndSplineSet
EndChar

StartChar: P
Encoding: 80 80 79
Width: 235
VWidth: 0
Flags: HMW
LayerCount: 2
Fore
SplineSet
185.922851562 177 m 0
 183.260742188 188 171.323242188 193 157.323242188 193 c 0
 116.323242188 193 l 0
 100.168945312 117 l 0
 141.168945312 117 l 0
 155.168945312 117 169.231445312 122 176.5703125 133 c 0
 184.12109375 145 188.372070312 165 185.922851562 177 c 0
113.299804688 0 m 0
 17.2998046875 0 l 0
 -6.7001953125 0 -0.3232421875 30 23.6767578125 30 c 0
 41.6767578125 30 l 0
 76.3232421875 193 l 0
 58.3232421875 193 l 0
 34.3232421875 193 40.7001953125 223 64.7001953125 223 c 0
 165.700195312 223 l 0
 190.700195312 223 206.787109375 214 220.173828125 197 c 0
 235.709960938 176 226.782226562 134 202.318359375 113 c 0
 181.705078125 96 161.791992188 87 136.791992188 87 c 0
 93.7919921875 87 l 0
 81.6767578125 30 l 0
 119.676757812 30 l 0
 143.676757812 30 137.299804688 0 113.299804688 0 c 0
EndSplineSet
EndChar

StartChar: Q
Encoding: 81 81 80
Width: 235
VWidth: 0
Flags: HMW
LayerCount: 2
Fore
SplineSet
72.1484375 51 m 0
 85.708984375 16 123.708984375 16 152.1484375 51 c 0
 183.225585938 89 192.791015625 134 177.868164062 172 c 0
 164.307617188 207 126.307617188 207 97.8681640625 172 c 0
 66.791015625 134 57.2255859375 89 72.1484375 51 c 0
71.30859375 0 m 0
 59.37109375 5 48.859375 12 37.8349609375 26 c 0
 5.3994140625 71 22.6171875 152 74.181640625 197 c 0
 120.896484375 238 182.896484375 238 212.181640625 197 c 0
 244.6171875 152 227.399414062 71 175.834960938 26 c 0
 155.008789062 8 130.670898438 -3 100.245117188 -5 c 0
 89.544921875 -13 l 0
 129.20703125 -24 131.506835938 -32 172.7578125 -12 c 0
 183.8203125 -7 198.631835938 -22 187.081054688 -34 c 0
 124.202148438 -104 113.544921875 -13 55.10546875 -48 c 0
 23.8544921875 -68 20.65625 -36 26.931640625 -30 c 0
 37.26953125 -19 53.3955078125 -9 71.30859375 0 c 0
EndSplineSet
EndChar

StartChar: R
Encoding: 82 82 81
Width: 235
VWidth: 0
Flags: HMW
LayerCount: 2
Fore
SplineSet
157.700195312 223 m 0
 176.700195312 223 194.211914062 216 203.236328125 202 c 0
 221.922851562 177 213.483398438 142 184.59375 119 c 0
 175.106445312 112 159.40625 104 146.98046875 102 c 0
 164.942382812 83 182.227539062 42 185.676757812 30 c 0
 193.676757812 30 l 0
 217.676757812 30 211.299804688 0 187.299804688 0 c 0
 160.299804688 0 l 0
 146.299804688 0 134.85546875 92 91.85546875 92 c 0
 81.85546875 92 l 0
 68.6767578125 30 l 0
 88.6767578125 30 l 0
 112.676757812 30 106.299804688 0 82.2998046875 0 c 0
 17.2998046875 0 l 0
 -6.7001953125 0 -0.3232421875 30 23.6767578125 30 c 0
 28.6767578125 30 l 0
 63.3232421875 193 l 0
 58.3232421875 193 l 0
 34.3232421875 193 40.7001953125 223 64.7001953125 223 c 0
 157.700195312 223 l 0
162.995117188 135 m 0
 173.333007812 146 178.009765625 168 173.34765625 179 c 0
 167.685546875 190 161.323242188 193 144.323242188 193 c 0
 103.323242188 193 l 0
 88.2314453125 122 l 0
 129.231445312 122 l 0
 146.231445312 122 153.869140625 125 162.995117188 135 c 0
EndSplineSet
EndChar

StartChar: S
Encoding: 83 83 82
Width: 235
VWidth: 0
Flags: HMW
LayerCount: 2
Fore
SplineSet
208.022460938 168 m 0
 202.920898438 144 172.920898438 144 177.384765625 165 c 0
 178.872070312 172 172.635742188 185 165.698242188 190 c 0
 154.036132812 201 129.461914062 203 108.698242188 190 c 0
 93.572265625 180 86.384765625 165 89.7705078125 148 c 0
 95.39453125 118 186.370117188 132 194.379882812 85 c 0
 198.12890625 65 189.814453125 40 162.3515625 19 c 0
 117.336914062 -14 64.76171875 -12 38.7138671875 16 c 0
 33.6123046875 -8 3.6123046875 -8 8.7138671875 16 c 0
 18.916015625 64 l 0
 24.017578125 88 54.017578125 88 48.916015625 64 c 0
 41.0517578125 27 113.86328125 12 134.96484375 36 c 0
 145.08984375 46 154.06640625 60 150.404296875 71 c 0
 146.23046875 89 123.29296875 94 104.35546875 99 c 0
 66.2685546875 108 48.8818359375 125 47.6455078125 138 c 0
 43.958984375 163 54.4853515625 189 78.5244140625 208 c 0
 111.837890625 233 179.05078125 234 187.375 212 c 0
 192.05078125 234 222.05078125 234 216.94921875 210 c 0
 208.022460938 168 l 0
EndSplineSet
EndChar

StartChar: T
Encoding: 84 84 83
Width: 235
VWidth: 0
Flags: HMW
LayerCount: 2
Fore
SplineSet
142.299804688 0 m 0
 48.2998046875 0 l 0
 24.2998046875 0 30.6767578125 30 54.6767578125 30 c 0
 81.6767578125 30 l 0
 116.323242188 193 l 0
 69.3232421875 193 l 0
 55.2705078125 141 l 0
 50.1689453125 117 20.1689453125 117 25.2705078125 141 c 0
 39.724609375 209 l 0
 42.0625 220 45.7001953125 223 54.7001953125 223 c 0
 230.700195312 223 l 0
 239.700195312 223 242.0625 220 239.724609375 209 c 0
 225.270507812 141 l 0
 220.168945312 117 190.168945312 117 195.270507812 141 c 0
 203.323242188 193 l 0
 156.323242188 193 l 0
 121.676757812 30 l 0
 148.676757812 30 l 0
 172.676757812 30 166.299804688 0 142.299804688 0 c 0
EndSplineSet
EndChar

StartChar: U
Encoding: 85 85 84
Width: 235
VWidth: 0
Flags: HMW
LayerCount: 2
Fore
SplineSet
105.854492188 193 m 0
 92.8544921875 193 l 0
 67.9853515625 76 l 0
 65.009765625 62 63.458984375 50 69.12109375 39 c 0
 79.08203125 20 128.08203125 20 146.12109375 39 c 0
 156.458984375 50 160.009765625 62 162.985351562 76 c 0
 187.854492188 193 l 0
 183.854492188 193 l 0
 159.854492188 193 166.231445312 223 190.231445312 223 c 0
 228.231445312 223 l 0
 252.231445312 223 245.854492188 193 221.854492188 193 c 0
 196.985351562 76 l 0
 195.498046875 69 189.908203125 38 167.870117188 19 c 0
 135.068359375 -13 53.068359375 -13 33.8701171875 19 c 0
 18.9716796875 43 26.498046875 69 27.9853515625 76 c 0
 52.8544921875 193 l 0
 28.8544921875 193 35.2314453125 223 59.2314453125 223 c 0
 112.231445312 223 l 0
 136.231445312 223 129.854492188 193 105.854492188 193 c 0
EndSplineSet
EndChar

StartChar: V
Encoding: 86 86 85
Width: 235
VWidth: 0
Flags: HMW
LayerCount: 2
Fore
SplineSet
71.5625 2 m 0
 40.1611328125 193 l 0
 16.1611328125 193 22.537109375 223 46.537109375 223 c 0
 104.537109375 223 l 0
 128.537109375 223 122.161132812 193 98.1611328125 193 c 0
 80.1611328125 193 l 0
 105.21484375 38 l 0
 200.161132812 193 l 0
 178.161132812 193 l 0
 154.161132812 193 160.537109375 223 184.537109375 223 c 0
 239.537109375 223 l 0
 263.537109375 223 257.161132812 193 233.161132812 193 c 0
 229.161132812 193 l 0
 111.349609375 1 l 0
 103.798828125 -11 73.798828125 -11 71.5625 2 c 0
EndSplineSet
EndChar

StartChar: W
Encoding: 87 87 86
Width: 235
VWidth: 0
Flags: HMW
LayerCount: 2
Fore
SplineSet
37.173828125 193 m 0
 13.173828125 193 19.5498046875 223 43.5498046875 223 c 0
 99.5498046875 223 l 0
 123.549804688 223 117.173828125 193 93.173828125 193 c 0
 77.173828125 193 l 0
 62.75390625 64 l 0
 114.28515625 170 l 0
 118.198242188 179 125.41015625 180 134.41015625 180 c 0
 143.41015625 180 150.198242188 179 150.28515625 170 c 0
 158.75390625 64 l 0
 203.173828125 193 l 0
 184.173828125 193 l 0
 160.173828125 193 166.549804688 223 190.549804688 223 c 0
 241.549804688 223 l 0
 265.549804688 223 259.173828125 193 235.173828125 193 c 0
 168.575195312 2 l 0
 164.662109375 -7 157.450195312 -8 148.450195312 -8 c 0
 137.450195312 -8 130.662109375 -7 130.575195312 2 c 0
 122.506835938 124 l 0
 59.5751953125 2 l 0
 55.662109375 -7 48.4501953125 -8 37.4501953125 -8 c 0
 23.4501953125 -8 16.662109375 -7 16.5751953125 2 c 0
 37.173828125 193 l 0
EndSplineSet
EndChar

StartChar: X
Encoding: 88 88 87
Width: 235
VWidth: 0
Flags: HMW
LayerCount: 2
Fore
SplineSet
178.299804688 0 m 0
 135.299804688 0 l 0
 111.299804688 0 117.676757812 30 141.676757812 30 c 0
 111.642578125 91 l 0
 52.6767578125 30 l 0
 60.6767578125 30 l 0
 84.6767578125 30 78.2998046875 0 54.2998046875 0 c 0
 12.2998046875 0 l 0
 -11.7001953125 0 -5.3232421875 30 18.6767578125 30 c 0
 21.6767578125 30 l 0
 101.106445312 112 l 0
 61.3232421875 193 l 0
 57.3232421875 193 l 0
 33.3232421875 193 39.7001953125 223 63.7001953125 223 c 0
 107.700195312 223 l 0
 131.700195312 223 125.323242188 193 101.323242188 193 c 0
 126.845703125 139 l 0
 179.323242188 193 l 0
 176.323242188 193 l 0
 152.323242188 193 158.700195312 223 182.700195312 223 c 0
 221.700195312 223 l 0
 245.700195312 223 239.323242188 193 215.323242188 193 c 0
 209.323242188 193 l 0
 136.956054688 116 l 0
 179.676757812 30 l 0
 184.676757812 30 l 0
 208.676757812 30 202.299804688 0 178.299804688 0 c 0
EndSplineSet
EndChar

StartChar: Y
Encoding: 89 89 88
Width: 235
VWidth: 0
Flags: HMW
LayerCount: 2
Fore
SplineSet
142.299804688 0 m 0
 51.2998046875 0 l 0
 27.2998046875 0 33.6767578125 30 57.6767578125 30 c 0
 81.6767578125 30 l 0
 92.9423828125 83 l 0
 56.3232421875 193 l 0
 52.3232421875 193 l 0
 28.3232421875 193 34.7001953125 223 58.7001953125 223 c 0
 109.700195312 223 l 0
 133.700195312 223 127.323242188 193 103.323242188 193 c 0
 95.3232421875 193 l 0
 122.893554688 111 l 0
 186.323242188 193 l 0
 174.323242188 193 l 0
 150.323242188 193 156.700195312 223 180.700195312 223 c 0
 231.700195312 223 l 0
 255.700195312 223 249.323242188 193 225.323242188 193 c 0
 217.323242188 193 l 0
 132.942382812 83 l 0
 121.676757812 30 l 0
 148.676757812 30 l 0
 172.676757812 30 166.299804688 0 142.299804688 0 c 0
EndSplineSet
EndChar

StartChar: Z
Encoding: 90 90 89
Width: 235
VWidth: 0
Flags: HMW
LayerCount: 2
Fore
SplineSet
19.763671875 21 m 0
 172.323242188 193 l 0
 100.323242188 193 l 0
 92.8837890625 158 l 0
 87.7822265625 134 57.7822265625 134 62.8837890625 158 c 0
 73.724609375 209 l 0
 76.275390625 221 78.7001953125 223 88.7001953125 223 c 0
 211.700195312 223 l 0
 225.700195312 223 229 215 218.236328125 202 c 0
 68.6767578125 30 l 0
 142.676757812 30 l 0
 157.604492188 72 l 0
 164.705078125 96 194.067382812 93 186.966796875 69 c 0
 170.275390625 14 l 0
 166.724609375 2 165.299804688 0 155.299804688 0 c 0
 26.2998046875 0 l 0
 12.2998046875 0 9 8 19.763671875 21 c 0
EndSplineSet
EndChar

StartChar: dieresis
Encoding: 91 168 90
Width: 235
VWidth: 0
Flags: HMW
LayerCount: 2
Fore
SplineSet
146.932617188 252 m 0
 159.057617188 262 177.057617188 262 184.932617188 252 c 0
 192.01953125 243 187.98046875 224 176.067382812 215 c 0
 164.942382812 205 146.942382812 205 139.067382812 215 c 0
 130.98046875 224 134.806640625 242 146.932617188 252 c 0
51.0673828125 215 m 0
 42.98046875 224 47.01953125 243 57.9326171875 252 c 0
 70.0576171875 262 88.0576171875 262 95.9326171875 252 c 0
 103.806640625 242 99.98046875 224 88.0673828125 215 c 0
 75.9423828125 205 57.9423828125 205 51.0673828125 215 c 0
EndSplineSet
EndChar

StartChar: ring
Encoding: 92 730 91
Width: 235
VWidth: 0
Flags: HMW
LayerCount: 2
Fore
SplineSet
128.791992188 209 m 0
 110.604492188 194 87.6044921875 194 76.7919921875 209 c 0
 66.5556640625 222 71.4443359375 245 87.2080078125 258 c 0
 104.395507812 273 127.395507812 273 139.208007812 258 c 0
 149.444335938 245 144.555664062 222 128.791992188 209 c 0
115.555664062 222 m 0
 123.043945312 229 125.168945312 239 120.444335938 245 c 0
 115.719726562 251 107.719726562 251 100.444335938 245 c 0
 92.1689453125 239 89.8310546875 228 95.5556640625 222 c 0
 99.2802734375 216 108.067382812 215 115.555664062 222 c 0
EndSplineSet
EndChar

StartChar: dotaccent
Encoding: 93 729 92
Width: 235
VWidth: 0
Flags: HMW
LayerCount: 2
Fore
SplineSet
97.5703125 199 m 0
 114.6953125 209 133.6953125 209 146.357421875 198 c 0
 159.59375 185 155.768554688 167 137.4296875 156 c 0
 120.3046875 146 101.3046875 146 88.642578125 157 c 0
 75.40625 170 79.2314453125 188 97.5703125 199 c 0
EndSplineSet
EndChar

StartChar: circumflex
Encoding: 94 710 93
Width: 235
VWidth: 0
Flags: HMW
LayerCount: 2
Fore
SplineSet
60.888671875 223 m 0
 113.178710938 262 l 0
 119.028320312 266 134.028320312 266 137.178710938 262 c 0
 172.888671875 223 l 0
 183.125 210 165.724609375 194 153.849609375 204 c 0
 131.67578125 222 l 0
 121.951171875 228 113.951171875 228 101.67578125 222 c 0
 71.849609375 204 l 0
 55.724609375 194 45.125 210 60.888671875 223 c 0
EndSplineSet
EndChar

StartChar: underscore
Encoding: 95 95 94
Width: 235
VWidth: 0
Flags: HMW
LayerCount: 2
Fore
SplineSet
-2.55078125 -91 m 0
 2.55078125 -67 l 0
 237.55078125 -67 l 0
 232.44921875 -91 l 0
 -2.55078125 -91 l 0
EndSplineSet
EndChar

StartChar: grave
Encoding: 96 96 95
Width: 235
VWidth: 0
Flags: HMW
LayerCount: 2
Fore
SplineSet
76.8046875 251 m 0
 94.568359375 264 l 0
 100.206054688 267 105.780273438 265 109.717773438 260 c 0
 128.578125 217 l 0
 133.452148438 207 118.114257812 196 108.6015625 203 c 0
 74.5537109375 231 l 0
 68.041015625 238 67.31640625 244 76.8046875 251 c 0
EndSplineSet
EndChar

StartChar: a
Encoding: 97 97 96
Width: 235
VWidth: 0
Flags: HMW
LayerCount: 2
Fore
SplineSet
198.145507812 152 m 0
 200.870117188 146 203.168945312 138 201.255859375 129 c 0
 180.212890625 30 l 0
 187.212890625 30 l 0
 211.212890625 30 204.836914062 0 180.836914062 0 c 0
 142.836914062 0 l 0
 136.836914062 0 134.474609375 3 135.75 9 c 0
 138.9375 24 l 0
 107.286132812 -12 42.8603515625 -14 22.8125 14 c 0
 8.2763671875 35 16.2275390625 63 38.2666015625 82 c 0
 68.79296875 108 109.280273438 115 155.729492188 103 c 0
 158.91796875 118 l 0
 159.981445312 123 160.893554688 132 155.168945312 138 c 0
 139.145507812 152 101.870117188 146 76.3193359375 134 c 0
 52.9814453125 123 44.5078125 149 68.05859375 161 c 0
 104.521484375 182 185.734375 183 198.145507812 152 c 0
79.7783203125 75 m 0
 60.2900390625 68 53.0390625 48 59.2763671875 35 c 0
 68.4501953125 17 112.788085938 28 144.46484375 50 c 0
 149.353515625 73 l 0
 122.840820312 80 99.0537109375 81 79.7783203125 75 c 0
EndSplineSet
EndChar

StartChar: b
Encoding: 98 98 97
Width: 235
VWidth: 0
Flags: HMW
LayerCount: 2
Fore
SplineSet
54.466796875 0 m 0
 11.466796875 0 l 0
 -12.533203125 0 -6.15625 30 17.84375 30 c 0
 29.84375 30 l 0
 69.1669921875 215 l 0
 57.1669921875 215 l 0
 33.1669921875 215 39.5439453125 245 63.5439453125 245 c 0
 101.543945312 245 l 0
 109.543945312 245 114.48046875 240 112.993164062 233 c 0
 96.4130859375 155 l 0
 125.15234375 182 179.790039062 185 203.563476562 151 c 0
 229.124023438 116 219.43359375 61 180.356445312 23 c 0
 141.279296875 -15 77.12890625 -11 67.0810546875 17 c 0
 64.5302734375 5 62.466796875 0 54.466796875 0 c 0
155.607421875 43 m 0
 174.49609375 66 184.360351562 103 172.099609375 130 c 0
 160.201171875 154 120.350585938 150 101.88671875 129 c 0
 82.2109375 107 73.708984375 67 82.8193359375 44 c 0
 91.568359375 24 133.655273438 15 155.607421875 43 c 0
EndSplineSet
EndChar

StartChar: c
Encoding: 99 99 98
Width: 235
VWidth: 0
Flags: HMW
LayerCount: 2
Fore
SplineSet
194.235351562 157 m 0
 199.549804688 182 229.549804688 182 224.235351562 157 c 0
 215.30859375 115 l 0
 210.20703125 91 180.20703125 91 185.30859375 115 c 0
 186.583984375 121 176.133789062 133 168.409179688 139 c 0
 150.172851562 152 112.322265625 148 91.0712890625 128 c 0
 64.33203125 101 59.830078125 61 79.3662109375 40 c 0
 104.626953125 13 144.028320312 29 183.979492188 57 c 0
 200.956054688 71 216.129882812 53 199.154296875 39 c 0
 132.1875 -22 70.5263671875 -11 43.6904296875 18 c 0
 11.1298828125 53 28.37109375 120 72.3857421875 153 c 0
 114.1875 185 175.336914062 181 194.235351562 157 c 0
EndSplineSet
EndChar

StartChar: d
Encoding: 100 100 99
Width: 235
VWidth: 0
Flags: HMW
LayerCount: 2
Fore
SplineSet
177.513671875 0 m 0
 136.513671875 0 l 0
 129.513671875 0 128.7890625 6 130.915039062 16 c 0
 95.900390625 -17 38.6005859375 -9 20.4033203125 23 c 0
 -2.51953125 61 10.7451171875 114 51.6103515625 151 c 0
 93.6875 189 146.561523438 179 160.459960938 155 c 0
 173.213867188 215 l 0
 138.213867188 215 l 0
 114.213867188 215 120.590820312 245 144.590820312 245 c 0
 205.590820312 245 l 0
 213.590820312 245 218.52734375 240 217.040039062 233 c 0
 173.890625 30 l 0
 183.890625 30 l 0
 207.890625 30 201.513671875 0 177.513671875 0 c 0
140.997070312 134 m 0
 126.822265625 152 92.6103515625 151 74.146484375 130 c 0
 53.044921875 106 44.2431640625 74 52.716796875 48 c 0
 63.1279296875 17 105.977539062 21 129.9296875 49 c 0
 146.967773438 68 154.170898438 116 140.997070312 134 c 0
EndSplineSet
EndChar

StartChar: e
Encoding: 101 101 100
Width: 235
VWidth: 0
Flags: HMW
LayerCount: 2
Fore
SplineSet
209.06640625 119 m 0
 210.603515625 98 204.501953125 74 189.501953125 74 c 0
 65.501953125 74 l 0
 62.951171875 62 65.67578125 56 67.9755859375 48 c 0
 79.0234375 20 124.385742188 17 192.61328125 51 c 0
 209.526367188 60 214.849609375 38 200.936523438 29 c 0
 125.521484375 -20 51.009765625 -13 33.787109375 33 c 0
 17.501953125 74 31.4921875 121 72.2939453125 153 c 0
 116.520507812 187 203.158203125 190 209.06640625 119 c 0
72.8779296875 104 m 0
 177.877929688 104 l 0
 180.216796875 115 177.129882812 124 173.405273438 130 c 0
 158.443359375 149 122.081054688 152 92.4052734375 130 c 0
 84.1298828125 124 74.3662109375 111 72.8779296875 104 c 0
EndSplineSet
EndChar

StartChar: f
Encoding: 102 102 101
Width: 235
VWidth: 0
Flags: HMW
LayerCount: 2
Fore
SplineSet
139.381835938 0 m 0
 25.3818359375 0 l 0
 1.3818359375 0 7.7587890625 30 31.7587890625 30 c 0
 52.7587890625 30 l 0
 76.3525390625 141 l 0
 55.3525390625 141 l 0
 31.3525390625 141 37.7294921875 171 61.7294921875 171 c 0
 82.7294921875 171 l 0
 87.830078125 195 l 0
 93.357421875 221 107.482421875 231 115.7578125 237 c 0
 139.37109375 254 208.37109375 254 229.8203125 242 c 0
 244.120117188 234 215.53125 203 204.231445312 211 c 0
 193.719726562 218 151.994140625 224 138.444335938 212 c 0
 132.380859375 207 128.893554688 200 127.192382812 192 c 0
 122.729492188 171 l 0
 175.729492188 171 l 0
 199.729492188 171 193.352539062 141 169.352539062 141 c 0
 116.352539062 141 l 0
 92.7587890625 30 l 0
 145.758789062 30 l 0
 169.758789062 30 163.381835938 0 139.381835938 0 c 0
EndSplineSet
EndChar

StartChar: g
Encoding: 103 103 102
Width: 235
VWidth: 0
Flags: HMW
LayerCount: 2
Fore
SplineSet
224.772460938 171 m 0
 248.772460938 171 242.396484375 141 218.396484375 141 c 0
 209.396484375 141 l 0
 181.55078125 10 l 0
 177.299804688 -10 164.498046875 -42 136.671875 -60 c 0
 102.783203125 -83 64.05859375 -77 41.333984375 -71 c 0
 23.396484375 -66 45.4736328125 -28 60.560546875 -37 c 0
 75.8603515625 -45 98.7978515625 -50 115.560546875 -37 c 0
 132.111328125 -25 138.362304688 -5 140.275390625 4 c 0
 146.014648438 31 l 0
 114.125976562 8 65.1259765625 8 43.865234375 35 c 0
 19.2421875 65 24.294921875 117 64.30859375 150 c 0
 104.536132812 184 152.111328125 182 173.221679688 159 c 0
 174.922851562 167 179.772460938 171 184.772460938 171 c 0
 224.772460938 171 l 0
139.604492188 62 m 0
 160.217773438 79 167.231445312 112 153.845703125 129 c 0
 140.670898438 147 111.670898438 147 90.845703125 129 c 0
 69.01953125 111 62.0048828125 78 75.6044921875 62 c 0
 89.7783203125 44 118.778320312 44 139.604492188 62 c 0
EndSplineSet
EndChar

StartChar: h
Encoding: 104 104 103
Width: 235
VWidth: 0
Flags: HMW
LayerCount: 2
Fore
SplineSet
103.038085938 245 m 0
 109.038085938 245 111.400390625 242 110.125 236 c 0
 92.4833984375 153 l 0
 112.24609375 166 129.372070312 176 152.372070312 176 c 0
 201.372070312 176 208.208007812 147 201.618164062 116 c 0
 183.338867188 30 l 0
 207.338867188 30 200.961914062 0 176.961914062 0 c 0
 132.961914062 0 l 0
 108.961914062 0 115.338867188 30 139.338867188 30 c 0
 143.338867188 30 l 0
 161.618164062 116 l 0
 165.869140625 136 159.5703125 144 139.5703125 144 c 0
 118.5703125 144 103.294921875 138 85.46875 120 c 0
 66.3388671875 30 l 0
 90.3388671875 30 83.9619140625 0 59.9619140625 0 c 0
 15.9619140625 0 l 0
 -8.0380859375 0 -1.6611328125 30 22.3388671875 30 c 0
 26.3388671875 30 l 0
 65.6611328125 215 l 0
 61.6611328125 215 l 0
 37.6611328125 215 44.0380859375 245 68.0380859375 245 c 0
 103.038085938 245 l 0
EndSplineSet
EndChar

StartChar: i
Encoding: 105 105 104
Width: 235
VWidth: 0
Flags: HMW
LayerCount: 2
Fore
SplineSet
154.111328125 0 m 0
 31.111328125 0 l 0
 7.111328125 0 13.48828125 30 37.48828125 30 c 0
 77.48828125 30 l 0
 101.08203125 141 l 0
 74.08203125 141 l 0
 50.08203125 141 56.458984375 171 80.458984375 171 c 0
 138.458984375 171 l 0
 144.458984375 171 146.821289062 168 145.545898438 162 c 0
 117.48828125 30 l 0
 160.48828125 30 l 0
 184.48828125 30 178.111328125 0 154.111328125 0 c 0
116.173828125 212 m 0
 122.337890625 241 l 0
 125.73828125 257 165.73828125 257 162.337890625 241 c 0
 156.173828125 212 l 0
 152.772460938 196 112.772460938 196 116.173828125 212 c 0
EndSplineSet
EndChar

StartChar: j
Encoding: 106 106 105
Width: 235
VWidth: 0
Flags: HMW
LayerCount: 2
Fore
SplineSet
35.861328125 -44 m 0
 70.6484375 -45 107.373046875 -51 115.450195312 -13 c 0
 148.18359375 141 l 0
 75.18359375 141 l 0
 51.18359375 141 57.560546875 171 81.560546875 171 c 0
 185.560546875 171 l 0
 191.560546875 171 193.922851562 168 192.647460938 162 c 0
 155.450195312 -13 l 0
 153.112304688 -24 146.861328125 -44 131.09765625 -57 c 0
 99.3583984375 -84 48.271484375 -75 28.484375 -74 c 0
 4.697265625 -73 12.2861328125 -42 35.861328125 -44 c 0
152.439453125 241 m 0
 155.840820312 257 195.840820312 257 192.439453125 241 c 0
 186.275390625 212 l 0
 182.875 196 142.875 196 146.275390625 212 c 0
 152.439453125 241 l 0
EndSplineSet
EndChar

StartChar: k
Encoding: 107 107 106
Width: 235
VWidth: 0
Flags: HMW
LayerCount: 2
Fore
SplineSet
172.961914062 0 m 0
 124.961914062 0 l 0
 100.961914062 0 107.338867188 30 131.338867188 30 c 0
 90.3916015625 82 l 0
 75.478515625 73 l 0
 61.875 9 l 0
 60.8125 4 55.9619140625 0 50.9619140625 0 c 0
 9.9619140625 0 l 0
 -14.0380859375 0 -7.6611328125 30 16.3388671875 30 c 0
 26.3388671875 30 l 0
 65.6611328125 215 l 0
 55.6611328125 215 l 0
 31.6611328125 215 38.0380859375 245 62.0380859375 245 c 0
 103.038085938 245 l 0
 108.038085938 245 111.1875 241 110.125 236 c 0
 82.4931640625 106 l 0
 140.932617188 141 l 0
 116.932617188 141 123.30859375 171 147.30859375 171 c 0
 200.30859375 171 l 0
 224.30859375 171 217.932617188 141 193.932617188 141 c 0
 188.932617188 141 l 0
 117.791992188 98 l 0
 176.338867188 30 l 0
 179.338867188 30 l 0
 203.338867188 30 196.961914062 0 172.961914062 0 c 0
EndSplineSet
EndChar

StartChar: l
Encoding: 108 108 107
Width: 235
VWidth: 0
Flags: HMW
LayerCount: 2
Fore
SplineSet
163.125 236 m 0
 119.338867188 30 l 0
 167.338867188 30 l 0
 191.338867188 30 184.961914062 0 160.961914062 0 c 0
 25.9619140625 0 l 0
 1.9619140625 0 8.3388671875 30 32.3388671875 30 c 0
 79.3388671875 30 l 0
 118.661132812 215 l 0
 93.6611328125 215 l 0
 69.6611328125 215 76.0380859375 245 100.038085938 245 c 0
 156.038085938 245 l 0
 161.038085938 245 164.1875 241 163.125 236 c 0
EndSplineSet
EndChar

StartChar: m
Encoding: 109 109 108
Width: 235
VWidth: 0
Flags: HMW
LayerCount: 2
Fore
SplineSet
197.248046875 0 m 0
 170.248046875 0 l 0
 162.248046875 0 158.098632812 4 161.07421875 18 c 0
 184.030273438 126 l 0
 190.83203125 158 150.005859375 140 144.479492188 114 c 0
 126.625 30 l 0
 150.625 30 144.248046875 0 120.248046875 0 c 0
 93.248046875 0 l 0
 85.248046875 0 81.0986328125 4 84.07421875 18 c 0
 107.030273438 126 l 0
 113.83203125 158 73.005859375 140 67.4794921875 114 c 0
 49.625 30 l 0
 73.625 30 67.248046875 0 43.248046875 0 c 0
 3.248046875 0 l 0
 -20.751953125 0 -14.375 30 9.625 30 c 0
 33.21875 141 l 0
 9.21875 141 15.595703125 171 39.595703125 171 c 0
 70.595703125 171 l 0
 76.595703125 171 78.9580078125 168 76.1943359375 155 c 0
 101.720703125 181 135.99609375 187 139.918945312 149 c 0
 170.421875 189 237.421875 189 223.60546875 124 c 0
 203.625 30 l 0
 227.625 30 221.248046875 0 197.248046875 0 c 0
EndSplineSet
EndChar

StartChar: n
Encoding: 110 110 109
Width: 235
VWidth: 0
Flags: HMW
LayerCount: 2
Fore
SplineSet
190.671875 30 m 0
 214.671875 30 208.294921875 0 184.294921875 0 c 0
 139.294921875 0 l 0
 115.294921875 0 121.671875 30 145.671875 30 c 0
 150.671875 30 l 0
 168.951171875 116 l 0
 172.990234375 135 166.903320312 144 146.903320312 144 c 0
 130.903320312 144 111.052734375 140 92.8017578125 120 c 0
 73.671875 30 l 0
 97.671875 30 91.294921875 0 67.294921875 0 c 0
 22.294921875 0 l 0
 -1.705078125 0 4.671875 30 28.671875 30 c 0
 33.671875 30 l 0
 57.265625 141 l 0
 52.265625 141 l 0
 28.265625 141 34.642578125 171 58.642578125 171 c 0
 94.642578125 171 l 0
 100.642578125 171 103.004882812 168 101.729492188 162 c 0
 99.81640625 153 l 0
 121.004882812 168 137.705078125 176 160.705078125 176 c 0
 201.705078125 176 216.603515625 152 208.951171875 116 c 0
 190.671875 30 l 0
EndSplineSet
EndChar

StartChar: o
Encoding: 111 111 110
Width: 235
VWidth: 0
Flags: HMW
LayerCount: 2
Fore
SplineSet
171.65234375 18 m 0
 133.063476562 -13 63.0634765625 -13 37.65234375 18 c 0
 9.3046875 54 22.6953125 117 66.34765625 153 c 0
 104.936523438 184 174.936523438 184 200.34765625 153 c 0
 228.6953125 117 215.3046875 54 171.65234375 18 c 0
149.391601562 45 m 0
 173.280273438 68 180.719726562 103 166.608398438 126 c 0
 151.709960938 150 113.709960938 150 88.6083984375 126 c 0
 64.7197265625 103 57.2802734375 68 71.3916015625 45 c 0
 86.2900390625 21 124.290039062 21 149.391601562 45 c 0
EndSplineSet
EndChar

StartChar: p
Encoding: 112 112 111
Width: 235
VWidth: 0
Flags: HMW
LayerCount: 2
Fore
SplineSet
79.5361328125 -73 m 0
 5.5361328125 -73 l 0
 -18.4638671875 -73 -12.0869140625 -43 11.9130859375 -43 c 0
 20.9130859375 -43 l 0
 60.0234375 141 l 0
 51.0234375 141 l 0
 27.0234375 141 33.3994140625 171 57.3994140625 171 c 0
 97.3994140625 171 l 0
 102.399414062 171 105.549804688 167 104.487304688 162 c 0
 102.361328125 152 l 0
 133.163085938 184 188.950195312 183 208.999023438 155 c 0
 237.921875 117 230.018554688 61 180.090820312 19 c 0
 151.990234375 -5 97.2265625 -18 73.453125 16 c 0
 60.9130859375 -43 l 0
 85.9130859375 -43 l 0
 109.913085938 -43 103.536132812 -73 79.5361328125 -73 c 0
88.6181640625 45 m 0
 98.0908203125 19 137.090820312 19 161.192382812 43 c 0
 184.081054688 66 193.071289062 113 173.959960938 136 c 0
 162.1484375 151 131.298828125 147 113.322265625 133 c 0
 91.4970703125 115 80.3564453125 72 88.6181640625 45 c 0
EndSplineSet
EndChar

StartChar: q
Encoding: 113 113 112
Width: 235
VWidth: 0
Flags: HMW
LayerCount: 2
Fore
SplineSet
174.541992188 -73 m 0
 101.541992188 -73 l 0
 77.5419921875 -73 83.9189453125 -43 107.918945312 -43 c 0
 132.918945312 -43 l 0
 146.09765625 19 l 0
 115.508789062 -12 60.5087890625 -12 37.5224609375 21 c 0
 9.8125 60 26.927734375 117 60.517578125 148 c 0
 100.169921875 184 154.169921875 184 175.004882812 155 c 0
 176.493164062 162 l 0
 177.555664062 167 182.40625 171 187.40625 171 c 0
 226.40625 171 l 0
 250.40625 171 244.029296875 141 220.029296875 141 c 0
 212.029296875 141 l 0
 172.918945312 -43 l 0
 180.918945312 -43 l 0
 204.918945312 -43 198.541992188 -73 174.541992188 -73 c 0
128.499023438 35 m 0
 161.75 55 171.078125 113 155.904296875 131 c 0
 139.155273438 151 116.580078125 153 92.75390625 135 c 0
 66.291015625 114 56.5126953125 68 68.4111328125 44 c 0
 79.16015625 24 100.884765625 18 128.499023438 35 c 0
EndSplineSet
EndChar

StartChar: r
Encoding: 114 114 113
Width: 235
VWidth: 0
Flags: HMW
LayerCount: 2
Fore
SplineSet
69.6181640625 171 m 0
 113.618164062 171 l 0
 118.618164062 171 121.767578125 167 120.705078125 162 c 0
 114.965820312 135 l 0
 171.231445312 188 216.743164062 181 226.916992188 163 c 0
 235.303710938 146 208.990234375 121 201.115234375 131 c 0
 180.004882812 154 165.791992188 153 108.801757812 106 c 0
 92.6474609375 30 l 0
 152.647460938 30 l 0
 176.647460938 30 170.270507812 0 146.270507812 0 c 0
 18.2705078125 0 l 0
 -5.7294921875 0 0.6474609375 30 24.6474609375 30 c 0
 52.6474609375 30 l 0
 76.2412109375 141 l 0
 63.2412109375 141 l 0
 39.2412109375 141 45.6181640625 171 69.6181640625 171 c 0
EndSplineSet
EndChar

StartChar: s
Encoding: 115 115 114
Width: 235
VWidth: 0
Flags: HMW
LayerCount: 2
Fore
SplineSet
143.235351562 35 m 0
 151.510742188 41 156.63671875 51 151.76171875 61 c 0
 143.375 78 73.3994140625 64 56.7763671875 94 c 0
 43.08984375 119 58.0419921875 147 82.4423828125 163 c 0
 108.84375 179 149.481445312 182 177.442382812 163 c 0
 181.268554688 181 211.481445312 182 206.379882812 158 c 0
 200.215820312 129 l 0
 195.114257812 105 165.114257812 105 170.215820312 129 c 0
 171.704101562 136 124.592773438 159 99.12890625 138 c 0
 91.853515625 132 88.578125 126 90.302734375 120 c 0
 100.3515625 92 173.177734375 110 187.163085938 77 c 0
 197.486328125 55 187.235351562 35 169.409179688 17 c 0
 153.008789062 1 92.33203125 -21 52.5595703125 13 c 0
 47.4580078125 -11 17.4580078125 -11 22.5595703125 13 c 0
 30.2109375 49 l 0
 35.3125 73 65.3125 73 60.2109375 49 c 0
 58.2978515625 40 103.708984375 9 143.235351562 35 c 0
EndSplineSet
EndChar

StartChar: t
Encoding: 116 116 115
Width: 235
VWidth: 0
Flags: HMW
LayerCount: 2
Fore
SplineSet
84.54296875 230 m 0
 85.943359375 246 135.15625 247 129.54296875 230 c 0
 126.204101562 219 121.016601562 204 118.890625 194 c 0
 114.001953125 171 l 0
 187.001953125 171 l 0
 211.001953125 171 204.625 141 180.625 141 c 0
 107.625 141 l 0
 91.470703125 65 l 0
 87.4326171875 46 88.1572265625 40 92.4560546875 32 c 0
 100.842773438 15 158.881835938 34 179.369140625 41 c 0
 201.857421875 48 204.755859375 24 181.842773438 15 c 0
 150.291992188 3 89.828125 -18 56.7802734375 10 c 0
 45.1181640625 21 45.9443359375 39 49.5576171875 56 c 0
 67.625 141 l 0
 47.625 141 l 0
 23.625 141 30.001953125 171 54.001953125 171 c 0
 74.001953125 171 l 0
 78.890625 194 l 0
 81.0166015625 204 83.4169921875 220 84.54296875 230 c 0
EndSplineSet
EndChar

StartChar: u
Encoding: 117 117 116
Width: 235
VWidth: 0
Flags: HMW
LayerCount: 2
Fore
SplineSet
81.6572265625 171 m 0
 88.6572265625 171 91.59375 166 90.1064453125 159 c 0
 68 55 l 0
 58.435546875 10 120.560546875 20 143.724609375 49 c 0
 163.280273438 141 l 0
 146.280273438 141 l 0
 122.280273438 141 128.657226562 171 152.657226562 171 c 0
 198.657226562 171 l 0
 205.657226562 171 208.59375 166 207.106445312 159 c 0
 179.686523438 30 l 0
 183.686523438 30 l 0
 207.686523438 30 201.309570312 0 177.309570312 0 c 0
 152.309570312 0 l 0
 145.309570312 0 142.372070312 5 143.860351562 12 c 0
 146.8359375 26 l 0
 104.909179688 -16 11.6337890625 -22 28 55 c 0
 46.2802734375 141 l 0
 22.2802734375 141 28.6572265625 171 52.6572265625 171 c 0
 81.6572265625 171 l 0
EndSplineSet
EndChar

StartChar: v
Encoding: 118 118 117
Width: 235
VWidth: 0
Flags: HMW
LayerCount: 2
Fore
SplineSet
170.859375 141 m 0
 146.859375 141 153.236328125 171 177.236328125 171 c 0
 225.236328125 171 l 0
 249.236328125 171 242.859375 141 220.859375 141 c 0
 215.859375 141 l 0
 119.314453125 2 l 0
 108.913085938 -14 83.9130859375 -14 80.314453125 2 c 0
 48.859375 141 l 0
 24.859375 141 31.236328125 171 55.236328125 171 c 0
 103.236328125 171 l 0
 127.236328125 171 120.859375 141 96.859375 141 c 0
 87.859375 141 l 0
 112.116210938 34 l 0
 184.859375 141 l 0
 170.859375 141 l 0
EndSplineSet
EndChar

StartChar: w
Encoding: 119 119 118
Width: 235
VWidth: 0
Flags: HMW
LayerCount: 2
Fore
SplineSet
147.299804688 124 m 0
 157.208007812 53 l 0
 197.913085938 141 l 0
 187.913085938 141 l 0
 163.913085938 141 170.2890625 171 194.2890625 171 c 0
 234.2890625 171 l 0
 258.2890625 171 251.913085938 141 227.913085938 141 c 0
 158.942382812 0 l 0
 150.966796875 -14 126.966796875 -14 125.942382812 0 c 0
 114.883789062 75 l 0
 71.9423828125 0 l 0
 64.966796875 -14 40.966796875 -14 38.9423828125 0 c 0
 33.9130859375 141 l 0
 9.9130859375 141 16.2890625 171 40.2890625 171 c 0
 84.2890625 171 l 0
 108.2890625 171 101.913085938 141 77.9130859375 141 c 0
 70.9130859375 141 l 0
 71.783203125 51 l 0
 116.299804688 124 l 0
 123.275390625 138 145.275390625 138 147.299804688 124 c 0
EndSplineSet
EndChar

StartChar: x
Encoding: 120 120 119
Width: 235
VWidth: 0
Flags: HMW
LayerCount: 2
Fore
SplineSet
158.796875 141 m 0
 130.796875 141 138.173828125 171 162.173828125 171 c 0
 204.173828125 171 l 0
 228.173828125 171 221.796875 141 197.796875 141 c 0
 141.806640625 94 l 0
 189.203125 30 l 0
 213.203125 30 206.826171875 0 182.826171875 0 c 0
 125.826171875 0 l 0
 101.826171875 0 108.203125 30 132.203125 30 c 0
 136.203125 30 l 0
 108.85546875 66 l 0
 65.203125 30 l 0
 73.203125 30 l 0
 97.203125 30 90.826171875 0 66.826171875 0 c 0
 14.826171875 0 l 0
 -9.173828125 0 -2.796875 30 21.203125 30 c 0
 25.203125 30 l 0
 90.681640625 84 l 0
 47.796875 141 l 0
 23.796875 141 30.173828125 171 54.173828125 171 c 0
 109.173828125 171 l 0
 133.173828125 171 126.796875 141 102.796875 141 c 0
 123.419921875 111 l 0
 158.796875 141 l 0
EndSplineSet
EndChar

StartChar: y
Encoding: 121 121 120
Width: 235
VWidth: 0
Flags: HMW
LayerCount: 2
Fore
SplineSet
11.068359375 -73 m 0
 -12.931640625 -73 -6.5556640625 -43 17.4443359375 -43 c 0
 54.4443359375 -43 l 0
 96.34765625 13 l 0
 56.5556640625 141 l 0
 32.5556640625 141 38.931640625 171 62.931640625 171 c 0
 109.931640625 171 l 0
 133.931640625 171 127.555664062 141 103.555664062 141 c 0
 98.5556640625 141 l 0
 124.424804688 51 l 0
 190.555664062 141 l 0
 185.555664062 141 l 0
 161.555664062 141 167.931640625 171 191.931640625 171 c 0
 230.931640625 171 l 0
 254.931640625 171 248.555664062 141 224.555664062 141 c 0
 88.4443359375 -43 l 0
 101.444335938 -43 l 0
 125.444335938 -43 119.068359375 -73 95.068359375 -73 c 0
 11.068359375 -73 l 0
EndSplineSet
EndChar

StartChar: z
Encoding: 122 122 121
Width: 235
VWidth: 0
Flags: HMW
LayerCount: 2
Fore
SplineSet
60.623046875 159 m 0
 62.5361328125 168 66.173828125 171 76.173828125 171 c 0
 213.173828125 171 l 0
 226.173828125 171 235.8984375 165 218.497070312 149 c 0
 79.203125 30 l 0
 149.203125 30 l 0
 151.541015625 41 l 0
 156.642578125 65 186.642578125 65 181.541015625 41 c 0
 176.865234375 19 172.826171875 0 152.826171875 0 c 0
 19.826171875 0 l 0
 6.826171875 0 -2.8984375 6 14.5029296875 22 c 0
 154.796875 141 l 0
 86.796875 141 l 0
 84.8837890625 132 l 0
 79.7822265625 108 49.7822265625 108 54.8837890625 132 c 0
 60.623046875 159 l 0
EndSplineSet
EndChar

StartChar: breve
Encoding: 123 728 122
Width: 235
VWidth: 0
Flags: HMW
LayerCount: 2
Fore
SplineSet
55.875 283 m 0
 57.42578125 295 84.42578125 295 85.087890625 284 c 0
 81.986328125 260 92.2861328125 252 107.286132812 252 c 0
 127.286132812 252 140.411132812 262 149.087890625 284 c 0
 156.850585938 297 179.788085938 292 177.087890625 284 c 0
 165.797851562 245 137.184570312 228 103.184570312 228 c 0
 75.1845703125 228 50.16015625 242 55.875 283 c 0
EndSplineSet
EndChar

StartChar: macron
Encoding: 124 175 123
Width: 235
VWidth: 0
Flags: HMW
LayerCount: 2
Fore
SplineSet
147.811523438 208 m 0
 83.8115234375 208 l 0
 59.8115234375 208 66.1884765625 238 90.1884765625 238 c 0
 154.188476562 238 l 0
 178.188476562 238 171.811523438 208 147.811523438 208 c 0
EndSplineSet
EndChar

StartChar: hungarumlaut
Encoding: 125 733 124
Width: 235
VWidth: 0
Flags: HMW
LayerCount: 2
Fore
SplineSet
133.541015625 219 m 0
 149.942382812 235 189.029296875 226 181.541015625 219 c 0
 117.700195312 168 l 0
 96.0869140625 151 69.5751953125 158 79.7001953125 168 c 0
 133.541015625 219 l 0
68.541015625 219 m 0
 83.3046875 232 132.091796875 231 116.541015625 219 c 0
 52.7001953125 168 l 0
 27.662109375 149 6 160 14.7001953125 168 c 0
 68.541015625 219 l 0
EndSplineSet
EndChar

StartChar: tilde
Encoding: 126 732 125
Width: 235
VWidth: 0
Flags: HMW
LayerCount: 2
Fore
SplineSet
51.6181640625 220 m 0
 55.01953125 236 76.419921875 252 98.419921875 252 c 0
 128.419921875 252 126.744140625 230 143.744140625 230 c 0
 158.744140625 230 163.782226562 249 177.782226562 249 c 0
 186.782226562 249 188.506835938 243 186.381835938 233 c 0
 182.98046875 217 161.580078125 201 139.580078125 201 c 0
 109.580078125 201 111.255859375 223 94.255859375 223 c 0
 79.255859375 223 74.2177734375 204 60.2177734375 204 c 0
 51.2177734375 204 49.4931640625 210 51.6181640625 220 c 0
EndSplineSet
EndChar

StartChar: caron
Encoding: 127 711 126
Width: 235
VWidth: 0
Flags: HMW
LayerCount: 2
Fore
SplineSet
79.59375 231 m 0
 66.14453125 243 88.7578125 260 102.569335938 245 c 0
 114.59375 231 l 0
 118.743164062 227 122.53125 226 128.380859375 230 c 0
 145.569335938 245 l 0
 160.333007812 258 180.20703125 248 165.018554688 233 c 0
 127.4296875 202 l 0
 116.729492188 194 112.729492188 194 105.4296875 202 c 0
 79.59375 231 l 0
EndSplineSet
EndChar

StartChar: onesuperior
Encoding: 128 185 127
Width: 235
VWidth: 0
Flags: HMW
LayerCount: 2
Fore
SplineSet
72.7578125 111 m 0
 97.7578125 111 l 0
 114.76171875 191 l 0
 96.486328125 185 l 0
 75.2109375 179 73.099609375 202 93.80078125 210 c 0
 129.3515625 222 l 0
 137.776367188 224 146.563476562 223 145.500976562 218 c 0
 122.7578125 111 l 0
 144.7578125 111 l 0
 164.7578125 111 159.443359375 86 139.443359375 86 c 0
 67.443359375 86 l 0
 47.443359375 86 52.7578125 111 72.7578125 111 c 0
EndSplineSet
EndChar

StartChar: twosuperior
Encoding: 129 178 128
Width: 235
VWidth: 0
Flags: HMW
LayerCount: 2
Fore
SplineSet
147.731445312 144 m 0
 107.716796875 111 l 0
 139.716796875 111 l 0
 143.118164062 127 162.118164062 127 158.716796875 111 c 0
 155.953125 98 l 0
 154.678710938 92 150.403320312 86 143.403320312 86 c 0
 64.4033203125 86 l 0
 51.4033203125 86 51.7412109375 97 60.0166015625 103 c 0
 132.76953125 163 l 0
 145.107421875 174 145.083984375 188 140.93359375 192 c 0
 132.634765625 200 113.421875 199 96.87109375 187 c 0
 83.9580078125 178 74.93359375 192 86.0595703125 202 c 0
 109.948242188 225 139.798828125 229 158.03515625 216 c 0
 179.997070312 197 171.407226562 166 147.731445312 144 c 0
EndSplineSet
EndChar

StartChar: threesuperior
Encoding: 130 179 129
Width: 235
VWidth: 0
Flags: HMW
LayerCount: 2
Fore
SplineSet
116.668945312 172 m 0
 121.668945312 172 131.668945312 172 135.731445312 177 c 0
 140.58203125 181 141.857421875 187 139.344726562 194 c 0
 131.470703125 204 110.1953125 198 99.3447265625 194 c 0
 83.2197265625 184 72.8330078125 201 88.958984375 211 c 0
 120.784179688 229 153.359375 227 162.895507812 206 c 0
 170.495117188 190 163.51953125 176 139.331054688 161 c 0
 168.780273438 149 166.403320312 119 142.15234375 99 c 0
 120.326171875 81 80.1767578125 85 66.876953125 93 c 0
 51.5771484375 101 64.041015625 122 79.765625 116 c 0
 92.703125 111 115.640625 106 126.765625 116 c 0
 137.678710938 125 138.229492188 137 135.080078125 141 c 0
 128.35546875 147 119.567382812 148 112.567382812 148 c 0
 96.7802734375 149 101.668945312 172 116.668945312 172 c 0
EndSplineSet
EndChar

StartChar: foursuperior
Encoding: 131 8308 130
Width: 235
VWidth: 0
Flags: HMW
LayerCount: 2
Fore
SplineSet
115.727539062 149 m 0
 121.6796875 177 l 0
 99.7275390625 149 l 0
 115.727539062 149 l 0
124.331054688 213 m 0
 133.45703125 223 155.45703125 223 153.119140625 212 c 0
 139.727539062 149 l 0
 155.727539062 149 151.689453125 130 135.689453125 130 c 0
 133.138671875 118 l 0
 149.138671875 118 145.099609375 99 129.099609375 99 c 0
 105.099609375 99 l 0
 89.099609375 99 93.138671875 118 109.138671875 118 c 0
 111.4765625 129 l 0
 72.4765625 129 l 0
 63.4765625 129 62.5390625 134 68.240234375 142 c 0
 124.331054688 213 l 0
EndSplineSet
EndChar

StartChar: fraction
Encoding: 132 8260 131
Width: 235
VWidth: 0
Flags: HMW
LayerCount: 2
Fore
SplineSet
80.130859375 103 m 0
 58.130859375 103 63.869140625 130 85.869140625 130 c 0
 163.869140625 130 l 0
 185.869140625 130 180.130859375 103 158.130859375 103 c 0
 80.130859375 103 l 0
EndSplineSet
EndChar

StartChar: onequarter
Encoding: 133 188 132
Width: 235
VWidth: 0
Flags: HMW
LayerCount: 2
Fore
SplineSet
118.791992188 91 m 0
 127.91796875 101 149.91796875 101 147.580078125 90 c 0
 134.188476562 27 l 0
 150.188476562 27 146.150390625 8 130.150390625 8 c 0
 127.599609375 -4 l 0
 143.599609375 -4 139.560546875 -23 123.560546875 -23 c 0
 99.560546875 -23 l 0
 83.560546875 -23 87.599609375 -4 103.599609375 -4 c 0
 105.9375 7 l 0
 66.9375 7 l 0
 57.9375 7 57 12 62.701171875 20 c 0
 118.791992188 91 l 0
80.3427734375 103 m 0
 58.3427734375 103 64.08203125 130 86.08203125 130 c 0
 164.08203125 130 l 0
 186.08203125 130 180.342773438 103 158.342773438 103 c 0
 80.3427734375 103 l 0
156.439453125 254 m 0
 160.439453125 254 162.801757812 251 161.951171875 247 c 0
 144.521484375 165 l 0
 156.521484375 165 l 0
 175.521484375 165 170.419921875 141 151.419921875 141 c 0
 104.419921875 141 l 0
 85.419921875 141 90.521484375 165 109.521484375 165 c 0
 120.521484375 165 l 0
 134.337890625 230 l 0
 129.337890625 230 l 0
 110.337890625 230 115.439453125 254 134.439453125 254 c 0
 156.439453125 254 l 0
110.188476562 27 m 0
 116.140625 55 l 0
 94.1884765625 27 l 0
 110.188476562 27 l 0
EndSplineSet
EndChar

StartChar: onehalf
Encoding: 134 189 133
Width: 235
VWidth: 0
Flags: HMW
LayerCount: 2
Fore
SplineSet
86.08203125 130 m 0
 164.08203125 130 l 0
 186.08203125 130 180.342773438 103 158.342773438 103 c 0
 80.3427734375 103 l 0
 58.3427734375 103 64.08203125 130 86.08203125 130 c 0
109.521484375 165 m 0
 120.521484375 165 l 0
 134.337890625 230 l 0
 129.337890625 230 l 0
 110.337890625 230 115.439453125 254 134.439453125 254 c 0
 156.439453125 254 l 0
 160.439453125 254 162.801757812 251 161.951171875 247 c 0
 144.521484375 165 l 0
 156.521484375 165 l 0
 175.521484375 165 170.419921875 141 151.419921875 141 c 0
 104.419921875 141 l 0
 85.419921875 141 90.521484375 165 109.521484375 165 c 0
116.560546875 -23 m 0
 52.560546875 -23 l 0
 44.560546875 -23 46.26171875 -15 57.1748046875 -6 c 0
 108.376953125 42 l 0
 116.077148438 50 118.990234375 59 113.69140625 67 c 0
 108.178710938 74 99.541015625 71 93.478515625 66 c 0
 79.927734375 54 66.478515625 66 81.4541015625 80 c 0
 106.91796875 101 128.85546875 96 138.666992188 81 c 0
 147.265625 65 140.014648438 45 123.826171875 30 c 0
 91.4501953125 0 l 0
 114.450195312 0 l 0
 117.637695312 15 135.637695312 15 132.450195312 0 c 0
 129.473632812 -14 l 0
 128.624023438 -18 122.560546875 -23 116.560546875 -23 c 0
EndSplineSet
EndChar

StartChar: threequarters
Encoding: 135 190 134
Width: 235
VWidth: 0
Flags: HMW
LayerCount: 2
Fore
SplineSet
162.9921875 103 m 0
 74.9921875 103 l 0
 59.9921875 103 65.7314453125 130 80.7314453125 130 c 0
 168.731445312 130 l 0
 183.731445312 130 177.9921875 103 162.9921875 103 c 0
66.5869140625 7 m 0
 57.5869140625 7 56.6494140625 12 62.3505859375 20 c 0
 118.44140625 91 l 0
 127.567382812 101 149.567382812 101 147.229492188 90 c 0
 133.837890625 27 l 0
 149.837890625 27 145.799804688 8 129.799804688 8 c 0
 127.249023438 -4 l 0
 143.249023438 -4 139.209960938 -23 123.209960938 -23 c 0
 99.2099609375 -23 l 0
 83.2099609375 -23 87.2490234375 -4 103.249023438 -4 c 0
 105.586914062 7 l 0
 66.5869140625 7 l 0
110.170898438 165 m 0
 120.682617188 158 135.470703125 157 141.958007812 164 c 0
 153.721679688 177 147.272460938 189 130.272460938 189 c 0
 117.272460938 189 122.161132812 212 136.161132812 212 c 0
 145.161132812 212 157.711914062 224 149.625 233 c 0
 145.474609375 237 135.262695312 236 124.987304688 230 c 0
 111.286132812 222 103.262695312 236 116.17578125 245 c 0
 140.36328125 260 162.7890625 262 171.600585938 247 c 0
 182.19921875 231 176.01171875 216 157.03515625 202 c 0
 175.334960938 194 179.595703125 167 155.344726562 147 c 0
 137.369140625 133 112.58203125 134 95.1318359375 146 c 0
 86.8330078125 154 97.87109375 173 110.170898438 165 c 0
109.837890625 27 m 0
 115.790039062 55 l 0
 93.837890625 27 l 0
 109.837890625 27 l 0
EndSplineSet
EndChar

StartChar: percent
Encoding: 136 37 135
Width: 235
VWidth: 0
Flags: HMW
LayerCount: 2
Fore
SplineSet
99.625 199 m 0
 88.9248046875 191 84.673828125 171 91.7607421875 162 c 0
 101.060546875 154 116.060546875 154 127.760742188 162 c 0
 138.673828125 171 142.924804688 191 135.625 199 c 0
 127.326171875 207 112.326171875 207 99.625 199 c 0
79.6005859375 213 m 0
 103.852539062 233 146.852539062 233 161.600585938 213 c 0
 174.987304688 196 168.185546875 164 147.359375 146 c 0
 124.321289062 127 81.3212890625 127 65.359375 146 c 0
 52.185546875 164 58.9873046875 196 79.6005859375 213 c 0
114.504882812 62 m 0
 103.8046875 54 99.5537109375 34 106.640625 25 c 0
 115.940429688 17 130.940429688 17 142.640625 25 c 0
 153.553710938 34 157.8046875 54 150.504882812 62 c 0
 142.205078125 70 127.205078125 70 114.504882812 62 c 0
176.48046875 76 m 0
 189.8671875 59 183.065429688 27 162.239257812 9 c 0
 139.201171875 -10 96.201171875 -10 80.2392578125 9 c 0
 67.0654296875 27 73.8671875 59 94.48046875 76 c 0
 118.732421875 96 161.732421875 96 176.48046875 76 c 0
56.41796875 71 m 0
 35.142578125 65 33.306640625 94 52.58203125 100 c 0
 185.634765625 152 l 0
 206.91015625 158 208.74609375 129 189.470703125 123 c 0
 56.41796875 71 l 0
EndSplineSet
EndChar

StartChar: perthousand
Encoding: 137 8240 136
Width: 235
VWidth: 0
Flags: HMW
LayerCount: 2
Fore
SplineSet
23.96875 83 m 0
 2.693359375 77 0.857421875 106 20.1328125 112 c 0
 196.185546875 164 l 0
 217.4609375 170 219.296875 141 200.021484375 135 c 0
 23.96875 83 l 0
141.48046875 76 m 0
 165.732421875 96 193.732421875 96 208.48046875 76 c 0
 221.8671875 59 215.065429688 27 194.239257812 9 c 0
 171.201171875 -10 143.201171875 -10 127.239257812 9 c 0
 114.065429688 27 120.8671875 59 141.48046875 76 c 0
43.48046875 76 m 0
 67.732421875 96 95.732421875 96 110.48046875 76 c 0
 123.8671875 59 117.065429688 27 96.2392578125 9 c 0
 73.201171875 -10 45.201171875 -10 29.2392578125 9 c 0
 16.0654296875 27 22.8671875 59 43.48046875 76 c 0
39.6005859375 213 m 0
 63.8525390625 233 91.8525390625 233 106.600585938 213 c 0
 119.987304688 196 113.185546875 164 92.359375 146 c 0
 69.3212890625 127 41.3212890625 127 25.359375 146 c 0
 12.185546875 164 18.9873046875 196 39.6005859375 213 c 0
161.504882812 62 m 0
 150.8046875 54 146.553710938 34 153.640625 25 c 0
 157.15234375 18 168.15234375 18 174.640625 25 c 0
 185.553710938 34 189.8046875 54 182.504882812 62 c 0
 175.780273438 68 169.567382812 67 161.504882812 62 c 0
63.5048828125 62 m 0
 52.8046875 54 48.5537109375 34 55.640625 25 c 0
 59.15234375 18 70.15234375 18 76.640625 25 c 0
 87.5537109375 34 91.8046875 54 84.5048828125 62 c 0
 77.7802734375 68 71.5673828125 67 63.5048828125 62 c 0
59.625 199 m 0
 48.9248046875 191 44.673828125 171 51.7607421875 162 c 0
 55.2724609375 155 66.2724609375 155 72.7607421875 162 c 0
 83.673828125 171 87.9248046875 191 80.625 199 c 0
 73.900390625 205 67.6884765625 204 59.625 199 c 0
EndSplineSet
EndChar

StartChar: degree
Encoding: 138 176 137
Width: 235
VWidth: 0
Flags: HMW
LayerCount: 2
Fore
SplineSet
156.602539062 229 m 0
 169.989257812 212 164.037109375 184 142.423828125 167 c 0
 121.810546875 150 93.810546875 150 80.423828125 167 c 0
 66.82421875 183 72.7763671875 211 93.3896484375 228 c 0
 115.215820312 246 143.215820312 246 156.602539062 229 c 0
100.82421875 183 m 0
 107.336914062 176 120.336914062 176 128.82421875 183 c 0
 138.525390625 191 141.288085938 204 135.989257812 212 c 0
 129.689453125 220 116.689453125 220 106.989257812 212 c 0
 97.2880859375 204 94.525390625 191 100.82421875 183 c 0
EndSplineSet
EndChar

StartChar: periodcentered
Encoding: 139 183 138
Width: 235
VWidth: 0
Flags: HMW
LayerCount: 2
Fore
SplineSet
146.357421875 114 m 0
 159.59375 101 155.768554688 83 137.4296875 72 c 0
 120.3046875 62 101.3046875 62 88.642578125 73 c 0
 75.40625 86 79.2314453125 104 97.5703125 115 c 0
 114.6953125 125 133.6953125 125 146.357421875 114 c 0
EndSplineSet
EndChar

StartChar: bullet
Encoding: 140 8226 139
Width: 235
VWidth: 0
Flags: HMW
LayerCount: 2
Fore
SplineSet
79.9853515625 61 m 0
 66.7490234375 74 75.2509765625 114 94.0146484375 127 c 0
 111.565429688 139 141.77734375 140 156.014648438 127 c 0
 169.250976562 114 160.749023438 74 141.985351562 61 c 0
 122.22265625 48 92.4345703125 49 79.9853515625 61 c 0
EndSplineSet
EndChar

StartChar: guilsinglleft
Encoding: 141 8249 140
Width: 235
VWidth: 0
Flags: HMW
LayerCount: 2
Fore
SplineSet
111.458984375 32 m 0
 77.0869140625 82 l 0
 73.3623046875 88 75.0625 96 81.337890625 102 c 0
 136.541015625 150 l 0
 157.154296875 167 173.690429688 146 153.077148438 129 c 0
 113.212890625 92 l 0
 136.922851562 53 l 0
 150.309570312 36 124.845703125 15 111.458984375 32 c 0
EndSplineSet
EndChar

StartChar: guilsinglright
Encoding: 142 8250 141
Width: 235
VWidth: 0
Flags: HMW
LayerCount: 2
Fore
SplineSet
122.541015625 150 m 0
 157.337890625 102 l 0
 161.0625 96 159.362304688 88 153.086914062 82 c 0
 97.458984375 32 l 0
 76.845703125 15 60.3095703125 36 80.9228515625 53 c 0
 121.212890625 92 l 0
 97.0771484375 129 l 0
 83.6904296875 146 109.154296875 167 122.541015625 150 c 0
EndSplineSet
EndChar

StartChar: guillemotleft
Encoding: 143 171 142
Width: 235
VWidth: 0
Flags: HMW
LayerCount: 2
Fore
SplineSet
202.077148438 129 m 0
 162.212890625 92 l 0
 185.922851562 53 l 0
 199.309570312 36 173.845703125 15 160.458984375 32 c 0
 126.086914062 82 l 0
 122.362304688 88 124.0625 96 130.337890625 102 c 0
 185.541015625 150 l 0
 206.154296875 167 222.690429688 146 202.077148438 129 c 0
89.9228515625 53 m 0
 103.309570312 36 77.845703125 15 64.458984375 32 c 0
 30.0869140625 82 l 0
 26.3623046875 88 28.0625 96 34.337890625 102 c 0
 89.541015625 150 l 0
 110.154296875 167 126.690429688 146 106.077148438 129 c 0
 66.212890625 92 l 0
 89.9228515625 53 l 0
EndSplineSet
EndChar

StartChar: guillemotright
Encoding: 144 187 143
Width: 235
VWidth: 0
Flags: HMW
LayerCount: 2
Fore
SplineSet
146.077148438 129 m 0
 132.690429688 146 158.154296875 167 171.541015625 150 c 0
 206.337890625 102 l 0
 210.0625 96 208.362304688 88 202.086914062 82 c 0
 146.458984375 32 l 0
 125.845703125 15 109.309570312 36 129.922851562 53 c 0
 170.212890625 92 l 0
 146.077148438 129 l 0
33.9228515625 53 m 0
 74.212890625 92 l 0
 50.0771484375 129 l 0
 36.6904296875 146 62.154296875 167 75.541015625 150 c 0
 110.337890625 102 l 0
 114.0625 96 112.362304688 88 106.086914062 82 c 0
 50.458984375 32 l 0
 29.845703125 15 13.3095703125 36 33.9228515625 53 c 0
EndSplineSet
EndChar

StartChar: paragraph
Encoding: 145 182 144
Width: 235
VWidth: 0
Flags: HMW
LayerCount: 2
Fore
SplineSet
233.590820312 223 m 0
 257.590820312 223 251.21484375 193 227.21484375 193 c 0
 216.21484375 193 l 0
 163.712890625 -54 l 0
 157.973632812 -81 121.973632812 -81 127.712890625 -54 c 0
 180.21484375 193 l 0
 155.21484375 193 l 0
 102.712890625 -54 l 0
 96.9736328125 -81 60.9736328125 -81 66.712890625 -54 c 0
 96.470703125 86 l 0
 76.470703125 86 45.896484375 88 31.4228515625 114 c 0
 18.3115234375 137 25.23828125 179 54.9150390625 201 c 0
 70.677734375 214 90.5908203125 223 115.590820312 223 c 0
 233.590820312 223 l 0
EndSplineSet
EndChar

StartChar: section
Encoding: 146 167 145
Width: 235
VWidth: 0
Flags: HMW
LayerCount: 2
Fore
SplineSet
92.91015625 87 m 0
 125.383789062 61 l 0
 143.534179688 57 161.209960938 79 150.3984375 94 c 0
 118.137695312 121 l 0
 96.2001953125 126 80.3115234375 103 92.91015625 87 c 0
50.31640625 -24 m 0
 41.2060546875 -1 52.6064453125 15 67.6064453125 15 c 0
 82.6064453125 15 77.630859375 1 79.29296875 -10 c 0
 82.9541015625 -21 101.954101562 -21 116.29296875 -10 c 0
 125.993164062 -2 131.543945312 10 113.732421875 25 c 0
 68.3837890625 61 l 0
 30.0361328125 97 73.9638671875 139 99.388671875 141 c 0
 77.8525390625 162 83.0791015625 196 105.692382812 213 c 0
 133.944335938 233 174.731445312 232 188.692382812 213 c 0
 201.291992188 197 193.915039062 167 175.915039062 167 c 0
 149.915039062 167 166.37890625 188 157.9296875 200 c 0
 153.416992188 207 137.416992188 207 126.716796875 199 c 0
 118.44140625 193 109.403320312 174 133.939453125 153 c 0
 172.5625 123 l 0
 189.799804688 110 189.509765625 71 171.534179688 57 c 0
 162.045898438 50 154.1953125 46 143.55859375 43 c 0
 167.881835938 21 153.655273438 -13 136.891601562 -26 c 0
 108.002929688 -49 61.7900390625 -50 50.31640625 -24 c 0
EndSplineSet
EndChar

StartChar: plus
Encoding: 147 43 146
Width: 235
VWidth: 0
Flags: HMW
LayerCount: 2
Fore
SplineSet
89.458984375 33 m 0
 98.8115234375 77 l 0
 53.8115234375 77 l 0
 29.8115234375 77 36.1884765625 107 60.1884765625 107 c 0
 105.188476562 107 l 0
 114.541015625 151 l 0
 119.642578125 175 149.642578125 175 144.541015625 151 c 0
 135.188476562 107 l 0
 178.188476562 107 l 0
 202.188476562 107 195.811523438 77 171.811523438 77 c 0
 128.811523438 77 l 0
 119.458984375 33 l 0
 114.357421875 9 84.357421875 9 89.458984375 33 c 0
EndSplineSet
EndChar

StartChar: multiply
Encoding: 148 215 147
Width: 235
VWidth: 0
Flags: HMW
LayerCount: 2
Fore
SplineSet
176.372070312 42 m 0
 189.758789062 25 164.294921875 4 150.908203125 21 c 0
 111.536132812 71 l 0
 50.908203125 21 l 0
 30.294921875 4 13.7587890625 25 34.3720703125 42 c 0
 95 92 l 0
 55.6279296875 142 l 0
 42.2412109375 159 67.705078125 180 81.091796875 163 c 0
 120.463867188 113 l 0
 181.091796875 163 l 0
 201.705078125 180 218.241210938 159 197.627929688 142 c 0
 137 92 l 0
 176.372070312 42 l 0
EndSplineSet
EndChar

StartChar: divide
Encoding: 149 247 148
Width: 235
VWidth: 0
Flags: HMW
LayerCount: 2
Fore
SplineSet
110.529296875 132 m 0
 104.229492188 140 106.9921875 153 116.693359375 161 c 0
 126.393554688 169 139.393554688 169 145.693359375 161 c 0
 150.9921875 153 148.229492188 140 138.529296875 132 c 0
 130.041015625 125 117.041015625 125 110.529296875 132 c 0
115.147460938 22 m 0
 105.66015625 15 92.66015625 15 87.1474609375 22 c 0
 80.84765625 30 83.611328125 43 92.3115234375 51 c 0
 102.01171875 59 115.01171875 59 121.311523438 51 c 0
 127.611328125 43 124.84765625 30 115.147460938 22 c 0
171.837890625 77 m 0
 53.837890625 77 l 0
 29.837890625 77 36.21484375 107 60.21484375 107 c 0
 178.21484375 107 l 0
 202.21484375 107 195.837890625 77 171.837890625 77 c 0
EndSplineSet
EndChar

StartChar: plusminus
Encoding: 150 177 149
Width: 235
VWidth: 0
Flags: HMW
LayerCount: 2
Fore
SplineSet
164.159179688 39 m 0
 188.159179688 39 181.783203125 9 157.783203125 9 c 0
 39.783203125 9 l 0
 15.783203125 9 22.1591796875 39 46.1591796875 39 c 0
 164.159179688 39 l 0
126.8984375 66 m 0
 121.796875 42 91.796875 42 96.8984375 66 c 0
 103.48828125 97 l 0
 58.48828125 97 l 0
 34.48828125 97 40.8642578125 127 64.8642578125 127 c 0
 109.864257812 127 l 0
 115.390625 153 l 0
 120.4921875 177 150.4921875 177 145.390625 153 c 0
 139.864257812 127 l 0
 182.864257812 127 l 0
 206.864257812 127 200.48828125 97 176.48828125 97 c 0
 133.48828125 97 l 0
 126.8984375 66 l 0
EndSplineSet
EndChar

StartChar: endash
Encoding: 151 8211 150
Width: 235
VWidth: 0
Flags: HMW
LayerCount: 2
Fore
SplineSet
83.8115234375 77 m 0
 59.8115234375 77 66.1884765625 107 90.1884765625 107 c 0
 147.188476562 107 l 0
 171.188476562 107 164.811523438 77 140.811523438 77 c 0
 83.8115234375 77 l 0
EndSplineSet
EndChar

StartChar: emdash
Encoding: 152 8212 151
Width: 235
VWidth: 0
Flags: HMW
LayerCount: 2
Fore
SplineSet
238.188476562 107 m 0
 262.188476562 107 255.811523438 77 231.811523438 77 c 0
 -3.1884765625 77 l 0
 -27.1884765625 77 -20.8115234375 107 3.1884765625 107 c 0
 238.188476562 107 l 0
EndSplineSet
EndChar

StartChar: minus
Encoding: 153 8722 152
Width: 235
VWidth: 0
Flags: HMW
LayerCount: 2
Fore
SplineSet
171.811523438 77 m 0
 53.8115234375 77 l 0
 29.8115234375 77 36.1884765625 107 60.1884765625 107 c 0
 178.188476562 107 l 0
 202.188476562 107 195.811523438 77 171.811523438 77 c 0
EndSplineSet
EndChar

StartChar: bracketleft
Encoding: 154 91 153
Width: 235
VWidth: 0
Flags: HMW
LayerCount: 2
Fore
SplineSet
53.0732421875 -61 m 0
 114.926757812 230 l 0
 116.83984375 239 122.90234375 244 131.90234375 244 c 0
 178.90234375 244 l 0
 202.90234375 244 196.526367188 214 172.526367188 214 c 0
 151.526367188 214 l 0
 96.4736328125 -45 l 0
 117.473632812 -45 l 0
 141.473632812 -45 135.09765625 -75 111.09765625 -75 c 0
 64.09765625 -75 l 0
 55.09765625 -75 51.16015625 -70 53.0732421875 -61 c 0
EndSplineSet
EndChar

StartChar: bracketright
Encoding: 155 93 154
Width: 235
VWidth: 0
Flags: HMW
LayerCount: 2
Fore
SplineSet
62.09765625 -75 m 0
 38.09765625 -75 44.4736328125 -45 68.4736328125 -45 c 0
 89.4736328125 -45 l 0
 144.526367188 214 l 0
 123.526367188 214 l 0
 99.5263671875 214 105.90234375 244 129.90234375 244 c 0
 176.90234375 244 l 0
 185.90234375 244 189.83984375 239 187.926757812 230 c 0
 126.073242188 -61 l 0
 124.16015625 -70 118.09765625 -75 109.09765625 -75 c 0
 62.09765625 -75 l 0
EndSplineSet
EndChar

StartChar: dagger
Encoding: 156 8224 155
Width: 235
VWidth: 0
Flags: HMW
LayerCount: 2
Fore
SplineSet
110.463867188 -49 m 0
 104.237304688 -83 63.2373046875 -83 70.4638671875 -49 c 0
 110.849609375 141 l 0
 88.849609375 141 l 0
 64.849609375 141 71.2265625 171 95.2265625 171 c 0
 117.2265625 171 l 0
 119.154296875 213 125.743164062 244 152.956054688 245 c 0
 179.743164062 244 173.154296875 213 157.2265625 171 c 0
 179.2265625 171 l 0
 203.2265625 171 196.849609375 141 172.849609375 141 c 0
 150.849609375 141 l 0
 110.463867188 -49 l 0
EndSplineSet
EndChar

StartChar: daggerdbl
Encoding: 157 8225 156
Width: 235
VWidth: 0
Flags: HMW
LayerCount: 2
Fore
SplineSet
142.826171875 0 m 0
 120.826171875 0 l 0
 118.899414062 -42 112.309570312 -73 85.09765625 -74 c 0
 58.3095703125 -73 64.8994140625 -42 80.826171875 0 c 0
 58.826171875 0 l 0
 34.826171875 0 41.203125 30 65.203125 30 c 0
 87.203125 30 l 0
 110.796875 141 l 0
 88.796875 141 l 0
 64.796875 141 71.173828125 171 95.173828125 171 c 0
 117.173828125 171 l 0
 119.100585938 213 125.690429688 244 152.90234375 245 c 0
 179.690429688 244 173.100585938 213 157.173828125 171 c 0
 179.173828125 171 l 0
 203.173828125 171 196.796875 141 172.796875 141 c 0
 150.796875 141 l 0
 127.203125 30 l 0
 149.203125 30 l 0
 173.203125 30 166.826171875 0 142.826171875 0 c 0
EndSplineSet
EndChar

StartChar: braceleft
Encoding: 158 123 157
Width: 235
VWidth: 0
Flags: HMW
LayerCount: 2
Fore
SplineSet
87.294921875 100 m 0
 96.294921875 100 102.357421875 105 105.758789062 121 c 0
 121.913085938 197 l 0
 129.990234375 235 148.90234375 244 182.90234375 244 c 0
 206.90234375 244 200.526367188 214 176.526367188 214 c 0
 169.526367188 214 164.250976562 208 161.913085938 197 c 0
 145.758789062 121 l 0
 141.294921875 100 129.168945312 90 115.106445312 85 c 0
 127.043945312 80 134.91796875 70 130.454101562 49 c 0
 114.086914062 -28 l 0
 111.749023438 -39 114.473632812 -45 121.473632812 -45 c 0
 145.473632812 -45 139.09765625 -75 115.09765625 -75 c 0
 81.09765625 -75 66.009765625 -66 74.0869140625 -28 c 0
 90.4541015625 49 l 0
 93.85546875 65 89.91796875 70 80.91796875 70 c 0
 56.91796875 70 63.294921875 100 87.294921875 100 c 0
EndSplineSet
EndChar

StartChar: braceright
Encoding: 159 125 158
Width: 235
VWidth: 0
Flags: HMW
LayerCount: 2
Fore
SplineSet
152.294921875 100 m 0
 176.294921875 100 169.91796875 70 145.91796875 70 c 0
 136.91796875 70 130.85546875 65 127.454101562 49 c 0
 111.086914062 -28 l 0
 103.009765625 -66 84.09765625 -75 50.09765625 -75 c 0
 26.09765625 -75 32.4736328125 -45 56.4736328125 -45 c 0
 63.4736328125 -45 68.7490234375 -39 71.0869140625 -28 c 0
 87.4541015625 49 l 0
 91.91796875 70 104.043945312 80 118.106445312 85 c 0
 106.168945312 90 98.294921875 100 102.758789062 121 c 0
 118.913085938 197 l 0
 121.250976562 208 118.526367188 214 111.526367188 214 c 0
 87.5263671875 214 93.90234375 244 117.90234375 244 c 0
 151.90234375 244 166.990234375 235 158.913085938 197 c 0
 142.758789062 121 l 0
 139.357421875 105 143.294921875 100 152.294921875 100 c 0
EndSplineSet
EndChar

StartChar: at
Encoding: 160 64 159
Width: 235
VWidth: 0
Flags: HMW
LayerCount: 2
Fore
SplineSet
160.212890625 117 m 0
 156.424804688 118 148.637695312 119 144 116 c 0
 130.086914062 107 123.860351562 73 129.372070312 66 c 0
 135.671875 58 141.096679688 60 148.734375 63 c 0
 160.212890625 117 l 0
192.333984375 47 m 0
 203.5078125 29 177.89453125 12 167.870117188 26 c 0
 158.420898438 38 l 0
 139.5078125 29 115.232421875 23 97.12109375 46 c 0
 77.22265625 70 91.275390625 122 122.888671875 139 c 0
 145.2265625 150 155.014648438 149 168.588867188 147 c 0
 171.990234375 163 168.115234375 173 165.178710938 178 c 0
 154.579101562 194 127.791992188 195 108.752929688 176 c 0
 77.951171875 144 54.4208984375 38 70.193359375 4 c 0
 83.2421875 -24 121.729492188 -17 139.85546875 -7 c 0
 161.193359375 4 166.666992188 -22 148.541992188 -32 c 0
 131.778320312 -45 60.1025390625 -67 35.3671875 -14 c 0
 17.01953125 22 22.67578125 138 84.216796875 197 c 0
 116.018554688 229 178.65625 232 199.91796875 205 c 0
 208.579101562 194 214.178710938 178 208.864257812 153 c 0
 188.034179688 55 l 0
 192.333984375 47 l 0
EndSplineSet
EndChar

StartChar: ampersand
Encoding: 161 38 160
Width: 235
VWidth: 0
Flags: HMW
LayerCount: 2
Fore
SplineSet
113.163085938 159 m 0
 136.92578125 172 151.751953125 190 149.727539062 204 c 0
 146.916015625 219 127.340820312 221 116.215820312 211 c 0
 105.877929688 200 101.4140625 179 113.163085938 159 c 0
54.505859375 43 m 0
 64.9794921875 17 98.1923828125 18 122.081054688 41 c 0
 85.384765625 113 l 0
 54.921875 92 47.544921875 62 54.505859375 43 c 0
179.935546875 125 m 0
 202.935546875 125 l 0
 226.935546875 125 220.559570312 95 196.559570312 95 c 0
 192.559570312 95 l 0
 185.795898438 82 175.182617188 65 163.356445312 47 c 0
 169.743164062 30 l 0
 174.743164062 30 l 0
 198.743164062 30 192.366210938 0 168.366210938 0 c 0
 154.366210938 0 l 0
 144.366210938 0 138.279296875 9 134.405273438 19 c 0
 99.6025390625 -13 35.177734375 -15 18.6796875 25 c 0
 3.33203125 61 20.4091796875 99 77.1240234375 140 c 0
 61.2880859375 169 63.8779296875 200 84.7666015625 223 c 0
 111.142578125 253 157.930664062 252 175.466796875 231 c 0
 188.640625 213 187.327148438 188 166.438476562 165 c 0
 158.525390625 156 138.548828125 142 121.848632812 134 c 0
 150.307617188 75 l 0
 165.559570312 95 162.935546875 125 179.935546875 125 c 0
EndSplineSet
EndChar

StartChar: asciicircum
Encoding: 162 94 161
Width: 235
VWidth: 0
Flags: HMW
LayerCount: 2
Fore
SplineSet
29.4560546875 170 m 0
 118.5859375 260 l 0
 126.07421875 267 138.07421875 267 143.5859375 260 c 0
 192.243164062 169 l 0
 201.416992188 151 173.654296875 138 166.416992188 151 c 0
 129.508789062 222 l 0
 127.359375 226 121.359375 226 117.508789062 222 c 0
 48.4169921875 151 l 0
 33.44140625 137 14.267578125 155 29.4560546875 170 c 0
EndSplineSet
EndChar

StartChar: bar
Encoding: 163 124 162
Width: 235
VWidth: 0
Flags: HMW
LayerCount: 2
Fore
SplineSet
107.647460938 -61 m 0
 104.247070312 -77 64.2470703125 -77 67.6474609375 -61 c 0
 130.352539062 234 l 0
 133.752929688 250 173.752929688 250 170.352539062 234 c 0
 107.647460938 -61 l 0
EndSplineSet
EndChar

StartChar: brokenbar
Encoding: 164 166 163
Width: 235
VWidth: 0
Flags: HMW
LayerCount: 2
Fore
SplineSet
130.352539062 234 m 0
 133.752929688 250 173.752929688 250 170.352539062 234 c 0
 147.821289062 128 l 0
 144.419921875 112 104.419921875 112 107.821289062 128 c 0
 130.352539062 234 l 0
107.647460938 -61 m 0
 104.247070312 -77 64.2470703125 -77 67.6474609375 -61 c 0
 90.1787109375 45 l 0
 93.580078125 61 133.580078125 61 130.178710938 45 c 0
 107.647460938 -61 l 0
EndSplineSet
EndChar

StartChar: logicalnot
Encoding: 165 172 164
Width: 235
VWidth: 0
Flags: HMW
LayerCount: 2
Fore
SplineSet
28.0390625 62 m 0
 33.1396484375 86 l 0
 221.139648438 86 l 0
 202.860351562 0 l 0
 178.860351562 0 l 0
 192.0390625 62 l 0
 28.0390625 62 l 0
EndSplineSet
EndChar

StartChar: copyright
Encoding: 166 169 165
Width: 235
VWidth: 0
Flags: HMW
LayerCount: 2
Fore
SplineSet
196.790039062 177 m 0
 223.5625 143 210.809570312 83 167.370117188 48 c 0
 125.717773438 12 66.7177734375 12 38.3701171875 48 c 0
 11.5966796875 82 24.1376953125 141 67.7900390625 177 c 0
 111.229492188 212 168.229492188 212 196.790039062 177 c 0
180.813476562 163 m 0
 157.977539062 192 111.977539062 192 77.8134765625 163 c 0
 42.8623046875 135 32.8720703125 88 53.9208984375 60 c 0
 76.96875 32 123.96875 32 156.920898438 60 c 0
 192.084960938 89 202.075195312 136 180.813476562 163 c 0
150.108398438 75 m 0
 121.370117188 48 90.9443359375 46 72.833984375 69 c 0
 58.6591796875 87 66.6494140625 134 97.7509765625 158 c 0
 113.088867188 169 133.790039062 177 144.388671875 161 c 0
 146.939453125 173 164.939453125 173 162.388671875 161 c 0
 156.862304688 135 l 0
 154.311523438 123 136.311523438 123 139.075195312 136 c 0
 140.350585938 142 126.538085938 157 107.137695312 141 c 0
 94.7998046875 130 85.2734375 104 90.6591796875 87 c 0
 96.470703125 72 120.408203125 67 140.447265625 86 c 0
 151.572265625 96 160.447265625 86 150.108398438 75 c 0
EndSplineSet
EndChar

StartChar: registered
Encoding: 167 174 166
Width: 235
VWidth: 0
Flags: HMW
LayerCount: 2
Fore
SplineSet
121.05078125 150 m 0
 113.05078125 150 l 0
 106.4609375 119 l 0
 115.4609375 119 l 0
 141.4609375 119 148.05078125 150 121.05078125 150 c 0
67.7900390625 177 m 0
 111.229492188 212 168.229492188 212 196.790039062 177 c 0
 223.5625 143 210.809570312 83 167.370117188 48 c 0
 125.717773438 12 66.7177734375 12 38.3701171875 48 c 0
 11.5966796875 82 24.1376953125 141 67.7900390625 177 c 0
156.920898438 60 m 0
 192.084960938 89 202.075195312 136 180.813476562 163 c 0
 157.977539062 192 111.977539062 192 77.8134765625 163 c 0
 42.8623046875 135 32.8720703125 88 53.9208984375 60 c 0
 76.96875 32 123.96875 32 156.920898438 60 c 0
97.4326171875 53 m 0
 73.4326171875 53 l 0
 58.4326171875 53 62.68359375 73 77.68359375 73 c 0
 94.05078125 150 l 0
 79.05078125 150 83.3017578125 170 98.3017578125 170 c 0
 139.301757812 170 l 0
 144.301757812 170 151.6640625 167 155.963867188 159 c 0
 162.98828125 145 158.586914062 129 148.249023438 118 c 0
 144.3984375 114 137.911132812 107 125.698242188 106 c 0
 135.360351562 95 138.659179688 87 141.68359375 73 c 0
 157.68359375 73 153.432617188 53 139.432617188 53 c 0
 113.432617188 53 127.998046875 98 101.998046875 98 c 0
 96.68359375 73 l 0
 101.68359375 73 l 0
 114.68359375 73 110.432617188 53 97.4326171875 53 c 0
EndSplineSet
EndChar

StartChar: trademark
Encoding: 168 8482 167
Width: 235
VWidth: 0
Flags: HMW
LayerCount: 2
Fore
SplineSet
110.203125 112 m 0
 98.203125 112 102.454101562 132 114.454101562 132 c 0
 128.908203125 200 l 0
 116.908203125 200 121.796875 223 133.796875 223 c 0
 155.796875 223 l 0
 157.796875 223 159.372070312 221 159.734375 218 c 0
 169.318359375 169 l 0
 199.734375 218 l 0
 201.372070312 221 202.796875 223 204.796875 223 c 0
 228.796875 223 l 0
 240.796875 223 235.908203125 200 223.908203125 200 c 0
 209.454101562 132 l 0
 213.454101562 132 l 0
 225.454101562 132 221.203125 112 209.203125 112 c 0
 181.203125 112 l 0
 169.203125 112 173.454101562 132 185.454101562 132 c 0
 196.294921875 183 l 0
 173.791992188 143 l 0
 170.091796875 135 154.87890625 134 154.791992188 143 c 0
 146.782226562 190 l 0
 134.454101562 132 l 0
 137.454101562 132 l 0
 149.454101562 132 145.203125 112 133.203125 112 c 0
 110.203125 112 l 0
71.203125 112 m 0
 22.203125 112 l 0
 12.203125 112 15.4541015625 132 26.4541015625 132 c 0
 38.4541015625 132 l 0
 52.908203125 200 l 0
 35.908203125 200 l 0
 30.869140625 181 l 0
 27.744140625 171 9.53125 170 11.869140625 181 c 0
 19.521484375 217 l 0
 20.1591796875 220 20.796875 223 24.796875 223 c 0
 115.796875 223 l 0
 118.796875 223 120.372070312 221 119.734375 218 c 0
 112.08203125 182 l 0
 109.744140625 171 91.318359375 169 93.08203125 182 c 0
 94.908203125 200 l 0
 78.908203125 200 l 0
 64.4541015625 132 l 0
 75.4541015625 132 l 0
 86.4541015625 132 82.203125 112 71.203125 112 c 0
EndSplineSet
EndChar

StartChar: ordmasculine
Encoding: 169 186 168
Width: 235
VWidth: 0
Flags: HMW
LayerCount: 2
Fore
SplineSet
139.424804688 148 m 0
 152.975585938 160 157.014648438 179 148.352539062 190 c 0
 139.690429688 201 121.690429688 201 108.352539062 190 c 0
 94.0146484375 179 89.763671875 159 98.4248046875 148 c 0
 107.086914062 137 126.086914062 137 139.424804688 148 c 0
63.5703125 64 m 0
 39.5703125 64 45.947265625 94 69.947265625 94 c 0
 142.947265625 94 l 0
 166.947265625 94 160.5703125 64 136.5703125 64 c 0
 63.5703125 64 l 0
157.749023438 126 m 0
 128.860351562 103 87.8603515625 103 69.7490234375 126 c 0
 54 146 63.3525390625 190 87.603515625 210 c 0
 116.705078125 234 157.705078125 234 175.603515625 210 c 0
 191.352539062 190 182 146 157.749023438 126 c 0
EndSplineSet
EndChar

StartChar: ordfeminine
Encoding: 170 170 169
Width: 235
VWidth: 0
Flags: HMW
LayerCount: 2
Fore
SplineSet
130 118 m 0
 132.125 128 l 0
 104.236328125 105 73.8115234375 103 63.0625 123 c 0
 53.888671875 141 64.3525390625 162 84.115234375 175 c 0
 100.241210938 185 122.666015625 187 143.028320312 184 c 0
 144.516601562 191 145.579101562 196 141.4296875 200 c 0
 132.129882812 208 112.279296875 204 102.4296875 200 c 0
 84.5166015625 191 79.4052734375 214 97.10546875 222 c 0
 114.805664062 230 156.65625 234 172.192382812 213 c 0
 175.916992188 207 177.216796875 199 176.366210938 195 c 0
 163.61328125 135 l 0
 167.61328125 135 l 0
 182.61328125 135 177.724609375 112 162.724609375 112 c 0
 134.724609375 112 l 0
 131.724609375 112 129.362304688 115 130 118 c 0
141.521484375 64 m 0
 68.521484375 64 l 0
 44.521484375 64 50.8984375 94 74.8984375 94 c 0
 147.8984375 94 l 0
 171.8984375 94 165.521484375 64 141.521484375 64 c 0
92.888671875 141 m 0
 98.55078125 130 115.826171875 136 136.376953125 148 c 0
 139.564453125 163 l 0
 123.990234375 165 106.990234375 165 99.501953125 158 c 0
 93.2265625 152 89.951171875 146 92.888671875 141 c 0
EndSplineSet
EndChar

StartChar: numbersign
Encoding: 171 35 170
Width: 235
VWidth: 0
Flags: HMW
LayerCount: 2
Fore
SplineSet
93.8115234375 65 m 0
 123.811523438 65 l 0
 139.0390625 99 l 0
 109.0390625 99 l 0
 93.8115234375 65 l 0
125.182617188 222 m 0
 130.521484375 233 138.733398438 234 150.733398438 234 c 0
 156.733398438 234 170.521484375 233 166.182617188 222 c 0
 123.415039062 129 l 0
 152.415039062 129 l 0
 195.182617188 222 l 0
 200.521484375 233 208.733398438 234 220.733398438 234 c 0
 226.733398438 234 240.521484375 233 236.182617188 222 c 0
 194.415039062 129 l 0
 201.415039062 129 l 0
 225.415039062 129 219.0390625 99 195.0390625 99 c 0
 180.0390625 99 l 0
 164.811523438 65 l 0
 173.811523438 65 l 0
 197.811523438 65 191.434570312 35 167.434570312 35 c 0
 151.434570312 35 l 0
 106.817382812 -62 l 0
 101.478515625 -73 93.2666015625 -74 81.2666015625 -74 c 0
 75.2666015625 -74 61.478515625 -73 65.8173828125 -62 c 0
 110.434570312 35 l 0
 80.4345703125 35 l 0
 36.8173828125 -62 l 0
 31.478515625 -73 23.2666015625 -74 11.2666015625 -74 c 0
 5.2666015625 -74 -8.521484375 -73 -4.1826171875 -62 c 0
 39.4345703125 35 l 0
 33.4345703125 35 l 0
 9.4345703125 35 15.8115234375 65 39.8115234375 65 c 0
 52.8115234375 65 l 0
 68.0390625 99 l 0
 61.0390625 99 l 0
 37.0390625 99 43.4150390625 129 67.4150390625 129 c 0
 82.4150390625 129 l 0
 125.182617188 222 l 0
EndSplineSet
EndChar

StartChar: currency
Encoding: 172 164 171
Width: 235
VWidth: 0
Flags: HMW
LayerCount: 2
Fore
SplineSet
147.34765625 73 m 0
 171.598632812 93 176.61328125 126 161.65234375 145 c 0
 145.903320312 165 114.903320312 165 90.65234375 145 c 0
 66.4013671875 125 59.38671875 92 74.34765625 73 c 0
 90.0966796875 53 124.096679688 53 147.34765625 73 c 0
44.9326171875 24 m 0
 24.3193359375 7 6.9951171875 29 27.396484375 45 c 0
 45.5849609375 60 l 0
 28.4736328125 83 39.1015625 133 66.203125 157 c 0
 54.390625 172 l 0
 40.7919921875 188 66.6806640625 211 80.0673828125 194 c 0
 92.666015625 178 l 0
 118.642578125 192 151.642578125 192 172.454101562 177 c 0
 194.067382812 194 l 0
 214.680664062 211 231.216796875 190 210.603515625 173 c 0
 191.415039062 158 l 0
 208.1015625 133 199.473632812 83 171.372070312 59 c 0
 183.396484375 45 l 0
 196.783203125 28 171.319335938 7 157.932617188 24 c 0
 143.545898438 41 l 0
 118.357421875 26 83.357421875 26 64.333984375 40 c 0
 44.9326171875 24 l 0
EndSplineSet
EndChar

StartChar: yen
Encoding: 173 165 172
Width: 235
VWidth: 0
Flags: HMW
LayerCount: 2
Fore
SplineSet
103.323242188 193 m 0
 95.3232421875 193 l 0
 122.893554688 111 l 0
 186.323242188 193 l 0
 174.323242188 193 l 0
 150.323242188 193 156.700195312 223 180.700195312 223 c 0
 231.700195312 223 l 0
 255.700195312 223 249.323242188 193 225.323242188 193 c 0
 217.323242188 193 l 0
 171.5703125 133 l 0
 198.5703125 133 l 0
 214.5703125 133 209.043945312 107 193.043945312 107 c 0
 151.043945312 107 l 0
 132.942382812 83 l 0
 187.942382812 83 l 0
 203.942382812 83 198.416015625 57 182.416015625 57 c 0
 127.416015625 57 l 0
 121.676757812 30 l 0
 148.676757812 30 l 0
 172.676757812 30 166.299804688 0 142.299804688 0 c 0
 51.2998046875 0 l 0
 27.2998046875 0 33.6767578125 30 57.6767578125 30 c 0
 81.6767578125 30 l 0
 87.416015625 57 l 0
 32.416015625 57 l 0
 16.416015625 57 21.9423828125 83 37.9423828125 83 c 0
 92.9423828125 83 l 0
 84.0439453125 107 l 0
 43.0439453125 107 l 0
 27.0439453125 107 32.5703125 133 48.5703125 133 c 0
 75.5703125 133 l 0
 56.3232421875 193 l 0
 52.3232421875 193 l 0
 28.3232421875 193 34.7001953125 223 58.7001953125 223 c 0
 109.700195312 223 l 0
 133.700195312 223 127.323242188 193 103.323242188 193 c 0
EndSplineSet
EndChar

StartChar: cent
Encoding: 174 162 173
Width: 235
VWidth: 0
Flags: HMW
LayerCount: 2
Fore
SplineSet
78.796875 37 m 0
 100.483398438 12 143.883789062 28 183.8359375 56 c 0
 202.024414062 71 217.198242188 53 198.796875 37 c 0
 181.609375 22 144.932617188 0 120.08203125 -4 c 0
 113.493164062 -35 l 0
 108.391601562 -59 78.3916015625 -59 83.4931640625 -35 c 0
 89.8701171875 -5 l 0
 68.8701171875 -5 51.845703125 9 43.5458984375 17 c 0
 10.9853515625 52 28.65234375 121 72.666015625 154 c 0
 92.8544921875 169 106.91796875 174 128.342773438 176 c 0
 134.506835938 205 l 0
 139.608398438 229 169.608398438 229 164.506835938 205 c 0
 158.342773438 176 l 0
 168.91796875 174 182.854492188 169 194.516601562 158 c 0
 199.618164062 182 229.618164062 182 224.516601562 158 c 0
 215.376953125 115 l 0
 210.275390625 91 180.275390625 91 185.376953125 115 c 0
 172.091796875 156 116.241210938 152 89.71484375 126 c 0
 64.61328125 102 58.6865234375 60 78.796875 37 c 0
EndSplineSet
EndChar

StartChar: dollar
Encoding: 175 36 174
Width: 235
VWidth: 0
Flags: HMW
LayerCount: 2
Fore
SplineSet
139.372070312 57 m 0
 147.072265625 65 153.048828125 79 148.9609375 88 c 0
 145.44921875 95 139.299804688 99 133.9375 102 c 0
 118.458984375 48 l 0
 123.458984375 48 130.671875 49 139.372070312 57 c 0
102.052734375 159 m 0
 106.565429688 152 110.927734375 149 117.290039062 146 c 0
 132.129882812 197 l 0
 126.129882812 197 118.129882812 197 108.4296875 189 c 0
 100.729492188 181 98.9658203125 168 102.052734375 159 c 0
182.874023438 97 m 0
 192.985351562 74 180.521484375 53 162.545898438 39 c 0
 142.145507812 23 123.5078125 20 109.5078125 20 c 0
 95.8798828125 -30 l 0
 90.7783203125 -54 58.7783203125 -54 63.8798828125 -30 c 0
 78.7197265625 21 l 0
 72.1455078125 23 63.2080078125 28 58.6962890625 35 c 0
 54.232421875 14 24.232421875 14 29.333984375 38 c 0
 38.1357421875 70 l 0
 43.236328125 94 73.236328125 94 68.560546875 72 c 0
 71.4345703125 62 78.3095703125 52 88.3095703125 52 c 0
 106.700195312 115 l 0
 92.763671875 120 74.1015625 131 66.8642578125 144 c 0
 57.6904296875 162 63.0048828125 187 86.4677734375 208 c 0
 104.869140625 224 126.506835938 227 140.506835938 227 c 0
 145.120117188 244 l 0
 150.221679688 268 182.221679688 268 177.120117188 244 c 0
 170.65625 223 l 0
 176.231445312 221 180.380859375 217 184.318359375 212 c 0
 188.995117188 234 218.995117188 234 213.893554688 210 c 0
 207.216796875 188 l 0
 202.116210938 164 172.116210938 164 176.791992188 186 c 0
 173.642578125 190 168.4921875 194 162.705078125 195 c 0
 143.313476562 132 l 0
 157.250976562 127 172.55078125 119 182.874023438 97 c 0
EndSplineSet
EndChar

StartChar: less
Encoding: 187 60 186
Width: 235
VWidth: 0
Flags: HMW
LayerCount: 2
Fore
SplineSet
186.830078125 208 m 0
 208.59375 221 222.705078125 198 200.729492188 184 c 0
 88.6376953125 113 l 0
 169.270507812 36 l 0
 185.294921875 22 161.40625 -1 145.169921875 12 c 0
 48.51171875 103 l 0
 40.212890625 111 41.0625 115 52.763671875 123 c 0
 186.830078125 208 l 0
EndSplineSet
EndChar

StartChar: greater
Encoding: 188 62 187
Width: 235
VWidth: 0
Flags: HMW
LayerCount: 2
Fore
SplineSet
90.830078125 208 m 0
 187.763671875 123 l 0
 196.0625 115 195.212890625 111 183.51171875 103 c 0
 49.169921875 12 l 0
 27.40625 -1 13.294921875 22 35.2705078125 36 c 0
 147.637695312 113 l 0
 66.7294921875 184 l 0
 50.705078125 198 74.59375 221 90.830078125 208 c 0
EndSplineSet
EndChar

StartChar: mu
Encoding: 189 181 188
Width: 235
VWidth: 0
Flags: HMW
LayerCount: 2
Fore
SplineSet
74.8232421875 54 m 0
 65.2587890625 9 125.383789062 19 150.547851562 48 c 0
 173.504882812 156 l 0
 179.243164062 183 219.243164062 183 213.504882812 156 c 0
 186.296875 28 l 0
 183.74609375 16 197.021484375 22 206.509765625 29 c 0
 214.78515625 35 225.447265625 24 216.321289062 14 c 0
 193.219726562 -10 145.157226562 -15 153.659179688 25 c 0
 115.432617188 -9 81.0078125 -11 56.0458984375 8 c 0
 48.6064453125 -27 l 0
 49.529296875 -65 39.19140625 -76 22.19140625 -76 c 0
 6.19140625 -76 0.529296875 -65 17.6064453125 -27 c 0
 56.5048828125 156 l 0
 62.2431640625 183 102.243164062 183 96.5048828125 156 c 0
 74.8232421875 54 l 0
EndSplineSet
EndChar

StartChar: slash
Encoding: 190 47 189
Width: 235
VWidth: 0
Flags: HMW
LayerCount: 2
Fore
SplineSet
196.564453125 235 m 0
 213.241210938 257 241.052734375 242 224.1640625 219 c 0
 33.435546875 -62 l 0
 16.7587890625 -84 -11.052734375 -69 5.8359375 -46 c 0
 196.564453125 235 l 0
EndSplineSet
EndChar

StartChar: backslash
Encoding: 191 92 190
Width: 235
VWidth: 0
Flags: HMW
LayerCount: 2
Fore
SplineSet
133.435546875 -62 m 0
 62.1640625 219 l 0
 55.052734375 242 89.2412109375 257 96.564453125 235 c 0
 167.8359375 -46 l 0
 174.947265625 -69 140.758789062 -84 133.435546875 -62 c 0
EndSplineSet
EndChar

StartChar: AE
Encoding: 192 198 191
Width: 235
VWidth: 0
Flags: HMW
LayerCount: 2
Fore
SplineSet
44.6767578125 30 m 0
 70.6767578125 30 64.2998046875 0 40.2998046875 0 c 0
 -2.7001953125 0 l 0
 -26.7001953125 0 -20.3232421875 30 3.6767578125 30 c 0
 105.323242188 193 l 0
 88.3232421875 193 l 0
 64.3232421875 193 70.7001953125 223 94.7001953125 223 c 0
 234.700195312 223 l 0
 247.700195312 223 251.849609375 219 250.149414062 211 c 0
 244.623046875 185 l 0
 239.521484375 161 209.521484375 161 214.623046875 185 c 0
 216.323242188 193 l 0
 176.323242188 193 l 0
 163.995117188 135 l 0
 176.995117188 135 l 0
 182.096679688 159 212.096679688 159 206.995117188 135 c 0
 200.618164062 105 l 0
 195.516601562 81 165.516601562 81 170.618164062 105 c 0
 157.618164062 105 l 0
 141.676757812 30 l 0
 184.676757812 30 l 0
 186.376953125 38 l 0
 191.478515625 62 221.478515625 62 216.376953125 38 c 0
 212.338867188 19 l 0
 208.9375 3 205.299804688 0 191.299804688 0 c 0
 91.2998046875 0 l 0
 67.2998046875 0 73.6767578125 30 97.6767578125 30 c 0
 101.676757812 30 l 0
 108.903320312 64 l 0
 64.9033203125 64 l 0
 44.6767578125 30 l 0
115.280273438 94 m 0
 131.647460938 171 l 0
 83.2802734375 94 l 0
 115.280273438 94 l 0
EndSplineSet
EndChar

StartChar: OE
Encoding: 193 338 192
Width: 235
VWidth: 0
Flags: HMW
LayerCount: 2
Fore
SplineSet
186.302734375 0 m 0
 105.302734375 0 l 0
 64.9638671875 -11 44.876953125 -2 24.19140625 23 c 0
 -8.09375 64 11.88671875 158 61.6015625 199 c 0
 93.1279296875 225 117.041015625 234 152.702148438 223 c 0
 230.702148438 223 l 0
 244.702148438 223 248.064453125 220 245.301757812 207 c 0
 240.625 185 l 0
 235.524414062 161 205.524414062 161 210.625 185 c 0
 212.326171875 193 l 0
 176.326171875 193 l 0
 163.997070312 135 l 0
 176.997070312 135 l 0
 182.098632812 159 212.098632812 159 206.997070312 135 c 0
 200.62109375 105 l 0
 195.51953125 81 165.51953125 81 170.62109375 105 c 0
 157.62109375 105 l 0
 141.678710938 30 l 0
 180.678710938 30 l 0
 182.379882812 38 l 0
 187.48046875 62 217.48046875 62 212.379882812 38 c 0
 207.703125 16 l 0
 204.940429688 3 200.302734375 0 186.302734375 0 c 0
60.2294921875 42 m 0
 71.4033203125 24 85.703125 16 101.891601562 31 c 0
 136.326171875 193 l 0
 126.513671875 208 108.813476562 200 89.9873046875 182 c 0
 55.9736328125 149 40.244140625 75 60.2294921875 42 c 0
EndSplineSet
EndChar

StartChar: Eth
Encoding: 194 208 193
Width: 235
VWidth: 0
Flags: HMW
LayerCount: 2
Fore
SplineSet
104.483398438 142 m 0
 120.483398438 142 114.956054688 116 98.9560546875 116 c 0
 16.9560546875 116 l 0
 0.9560546875 116 6.4833984375 142 22.4833984375 142 c 0
 104.483398438 142 l 0
EndSplineSet
Refer: 67 68 N 1 0 0 1 0 0 0
EndChar

StartChar: Thorn
Encoding: 195 222 194
Width: 235
VWidth: 0
Flags: HMW
LayerCount: 2
Fore
SplineSet
174.6328125 138 m 0
 166.545898438 147 158.970703125 149 143.970703125 149 c 0
 106.970703125 149 l 0
 94.2177734375 89 l 0
 130.217773438 89 l 0
 139.217773438 89 156.642578125 91 167.98046875 102 c 0
 177.893554688 111 181.932617188 130 174.6328125 138 c 0
160.700195312 223 m 0
 184.700195312 223 178.323242188 193 154.323242188 193 c 0
 116.323242188 193 l 0
 113.34765625 179 l 0
 149.34765625 179 l 0
 163.34765625 179 187.560546875 180 205.734375 162 c 0
 229.845703125 139 219.40625 104 190.3046875 80 c 0
 170.903320312 64 144.840820312 59 123.840820312 59 c 0
 87.8408203125 59 l 0
 81.6767578125 30 l 0
 119.676757812 30 l 0
 143.676757812 30 137.299804688 0 113.299804688 0 c 0
 17.2998046875 0 l 0
 -6.7001953125 0 -0.3232421875 30 23.6767578125 30 c 0
 41.6767578125 30 l 0
 76.3232421875 193 l 0
 58.3232421875 193 l 0
 34.3232421875 193 40.7001953125 223 64.7001953125 223 c 0
 160.700195312 223 l 0
EndSplineSet
EndChar

StartChar: Eng
Encoding: 196 330 195
Width: 235
VWidth: 0
Flags: HMW
LayerCount: 2
Fore
SplineSet
99.83984375 172 m 0
 93.564453125 166 83.65234375 157 77.1640625 150 c 0
 51.6572265625 30 l 0
 60.6572265625 30 65.6572265625 30 68.806640625 26 c 0
 73.3193359375 19 71.40625 10 65.130859375 4 c 0
 59.2802734375 0 49.2802734375 0 38.2802734375 0 c 0
 11.2802734375 0 l 0
 -0.7197265625 0 -9.7197265625 0 -13.65625 5 c 0
 -19.3818359375 11 -17.6806640625 19 -9.193359375 26 c 0
 -5.5556640625 29 2.6572265625 30 11.6572265625 30 c 0
 46.3037109375 193 l 0
 37.3037109375 193 30.3037109375 193 27.154296875 197 c 0
 22.4296875 203 24.3427734375 212 31.6181640625 218 c 0
 37.6806640625 223 45.6806640625 223 57.6806640625 223 c 0
 92.6806640625 223 l 0
 86.7294921875 195 l 0
 129.231445312 235 189.081054688 239 214.067382812 206 c 0
 219.579101562 199 223.091796875 192 223.965820312 182 c 0
 225.627929688 171 223.588867188 152 217.424804688 123 c 0
 210.623046875 91 l 0
 202.333007812 52 196.232421875 28 169.98046875 8 c 0
 149.79296875 -7 115.3671875 -9 105.706054688 2 c 0
 100.193359375 9 102.95703125 22 111.232421875 28 c 0
 124.5703125 39 136.594726562 25 148.719726562 35 c 0
 158.6328125 44 163.883789062 64 170.198242188 89 c 0
 179.55078125 133 l 0
 185.077148438 159 185.477539062 175 176.81640625 186 c 0
 161.854492188 205 126.729492188 195 99.83984375 172 c 0
EndSplineSet
EndChar

StartChar: Hbar
Encoding: 197 294 196
Width: 235
VWidth: 0
Flags: HMW
LayerCount: 2
Fore
SplineSet
219.497070312 175 m 0
 243.497070312 175 237.12109375 145 213.12109375 145 c 0
 32.12109375 145 l 0
 8.12109375 145 14.4970703125 175 38.4970703125 175 c 0
 219.497070312 175 l 0
EndSplineSet
Refer: 71 72 N 1 0 0 1 0 0 0
EndChar

StartChar: Lslash
Encoding: 198 321 197
Width: 235
VWidth: 0
Flags: HMW
LayerCount: 2
Fore
SplineSet
9.3916015625 71 m 0
 -7.30859375 63 -1.357421875 91 15.5556640625 100 c 0
 143.372070312 165 l 0
 159.072265625 173 149.270507812 141 136.995117188 135 c 0
 9.3916015625 71 l 0
EndSplineSet
Refer: 75 76 N 1 0 0 1 0 0 0
EndChar

StartChar: Oslash
Encoding: 199 216 198
Width: 235
VWidth: 0
Flags: HMW
LayerCount: 2
Fore
SplineSet
164.729492188 185 m 0
 148.767578125 204 117.767578125 204 90.9658203125 172 c 0
 64.376953125 141 52.662109375 100 61.009765625 64 c 0
 164.729492188 185 l 0
146.247070312 51 m 0
 168.560546875 76 183.48828125 118 177.927734375 153 c 0
 75.6328125 34 l 0
 93.232421875 18 123.294921875 23 146.247070312 51 c 0
36.85546875 -12 m 0
 19.6044921875 -32 -6.7822265625 -15 11.89453125 7 c 0
 29.1455078125 27 l 0
 4.9228515625 73 12.8642578125 148 67.2802734375 197 c 0
 108.14453125 234 163.357421875 235 188.893554688 214 c 0
 206.14453125 234 l 0
 223.395507812 254 249.782226562 237 231.10546875 215 c 0
 211.004882812 191 l 0
 236.2265625 145 217.434570312 66 169.932617188 26 c 0
 126.068359375 -11 79.068359375 -11 51.681640625 6 c 0
 36.85546875 -12 l 0
EndSplineSet
EndChar

StartChar: cedilla
Encoding: 210 184 209
Width: 235
VWidth: 0
Flags: HMW
LayerCount: 2
Fore
SplineSet
103.984375 0 m 0
 134.984375 0 l 0
 113.095703125 -23 187.008789062 -14 144.805664062 -62 c 0
 130.405273438 -78 82.341796875 -83 69.0810546875 -56 c 0
 63.4189453125 -45 76.3955078125 -31 87.1201171875 -37 c 0
 105.994140625 -47 117.931640625 -52 123.844726562 -43 c 0
 131.607421875 -30 99.1826171875 -32 95.37109375 -17 c 0
 94.43359375 -12 99.1337890625 -4 103.984375 0 c 0
EndSplineSet
EndChar

StartChar: Euro
Encoding: 219 8364 215
Width: 235
VWidth: 0
Flags: HMW
LayerCount: 2
Fore
SplineSet
191.234375 51 m 0
 210.234375 51 204.983398438 31 184.794921875 16 c 0
 140.35546875 -19 52.2685546875 -10 21.345703125 28 c 0
 11.109375 41 5.72265625 58 6.1865234375 79 c 0
 0.1865234375 79 -3.6015625 80 -4.9638671875 83 c 0
 -7.11328125 87 -3.9873046875 97 -0.349609375 100 c 0
 2.0751953125 102 5.2880859375 103 9.2880859375 103 c 0
 12.9013671875 120 l 0
 7.9013671875 120 5.11328125 121 3.5390625 123 c 0
 1.388671875 127 4.3017578125 136 8.15234375 140 c 0
 10.7900390625 143 15.001953125 144 19.001953125 144 c 0
 28.103515625 168 42.7802734375 190 63.3935546875 207 c 0
 104.408203125 240 165.108398438 248 201.58203125 222 c 0
 203.006835938 224 204.219726562 225 206.431640625 226 c 0
 215.1328125 234 228.1328125 234 233.64453125 227 c 0
 236.793945312 223 237.306640625 216 235.180664062 206 c 0
 227.954101562 172 l 0
 226.041015625 163 222.552734375 156 217.490234375 151 c 0
 209.21484375 145 199.427734375 146 194.703125 152 c 0
 189.403320312 160 194.37890625 174 185.9296875 186 c 0
 171.818359375 209 130.456054688 212 103.267578125 197 c 0
 83.142578125 187 65.529296875 170 55.7900390625 143 c 0
 157.790039062 143 l 0
 162.790039062 143 166.790039062 143 168.365234375 141 c 0
 171.514648438 137 166.388671875 127 162.750976562 124 c 0
 159.11328125 121 154.901367188 120 148.901367188 120 c 0
 48.9013671875 120 l 0
 46.6259765625 114 45.3505859375 108 45.2880859375 103 c 0
 140.288085938 103 l 0
 145.288085938 103 149.075195312 102 150.650390625 100 c 0
 152.799804688 96 148.88671875 87 145.036132812 83 c 0
 141.3984375 80 137.186523438 79 131.186523438 79 c 0
 42.1865234375 79 l 0
 43.384765625 47 65.49609375 24 109.49609375 24 c 0
 161.49609375 24 173.234375 51 191.234375 51 c 0
EndSplineSet
EndChar

StartChar: exclamdown
Encoding: 220 161 216
Width: 235
VWidth: 0
Flags: HMW
LayerCount: 2
Fore
SplineSet
116.66015625 168 m 0
 133.998046875 179 152.998046875 179 165.872070312 169 c 0
 179.534179688 158 175.708007812 140 156.9453125 127 c 0
 139.606445312 116 120.606445312 116 107.732421875 126 c 0
 94.0703125 137 97.896484375 155 116.66015625 168 c 0
99.5595703125 -63 m 0
 85.5595703125 -63 l 0
 75.984375 -61 72.046875 -56 72.53515625 -49 c 0
 101.891601562 75 l 0
 104.592773438 83 108.655273438 88 117.080078125 90 c 0
 133.080078125 90 l 0
 140.655273438 88 142.592773438 83 141.891601562 75 c 0
 118.53515625 -49 l 0
 116.046875 -56 109.984375 -61 99.5595703125 -63 c 0
EndSplineSet
EndChar

StartChar: dotlessj
Encoding: 221 567 217
Width: 235
VWidth: 0
Flags: HMW
LayerCount: 2
Fore
SplineSet
44.576171875 -44 m 0
 79.36328125 -45 116.087890625 -51 124.165039062 -13 c 0
 156.8984375 141 l 0
 83.8984375 141 l 0
 59.8984375 141 66.275390625 171 90.275390625 171 c 0
 194.275390625 171 l 0
 200.275390625 171 202.637695312 168 201.362304688 162 c 0
 164.165039062 -13 l 0
 161.827148438 -24 155.576171875 -44 139.8125 -57 c 0
 108.073242188 -84 56.986328125 -75 37.19921875 -74 c 0
 13.412109375 -73 21.0009765625 -42 44.576171875 -44 c 0
EndSplineSet
EndChar

StartChar: kgreenlandic
Encoding: 222 312 218
Width: 235
VWidth: 0
Flags: HMW
LayerCount: 2
Fore
SplineSet
180.826171875 0 m 0
 132.826171875 0 l 0
 108.826171875 0 115.203125 30 139.203125 30 c 0
 98.255859375 82 l 0
 83.3427734375 73 l 0
 69.7392578125 9 l 0
 68.6767578125 4 63.826171875 0 58.826171875 0 c 0
 17.826171875 0 l 0
 -6.173828125 0 0.203125 30 24.203125 30 c 0
 34.203125 30 l 0
 57.796875 141 l 0
 47.796875 141 l 0
 23.796875 141 30.173828125 171 54.173828125 171 c 0
 95.173828125 171 l 0
 100.173828125 171 103.323242188 167 102.260742188 162 c 0
 90.357421875 106 l 0
 148.796875 141 l 0
 124.796875 141 131.173828125 171 155.173828125 171 c 0
 208.173828125 171 l 0
 232.173828125 171 225.796875 141 201.796875 141 c 0
 196.796875 141 l 0
 125.657226562 98 l 0
 184.203125 30 l 0
 187.203125 30 l 0
 211.203125 30 204.826171875 0 180.826171875 0 c 0
EndSplineSet
EndChar

StartChar: germandbls
Encoding: 223 223 219
Width: 235
VWidth: 0
Flags: HMW
LayerCount: 2
Fore
SplineSet
38.841796875 0 m 0
 15.841796875 0 l 0
 -8.158203125 0 -1.78125 30 22.21875 30 c 0
 27.21875 30 l 0
 53.576171875 154 l 0
 63.353515625 200 82.1796875 218 104.155273438 232 c 0
 140.83203125 254 185.768554688 249 201.879882812 226 c 0
 213.266601562 209 214.58984375 187 199.126953125 166 c 0
 190.000976562 156 178.875976562 146 164.600585938 140 c 0
 174.75 136 188.624023438 126 193.923828125 118 c 0
 213.122070312 86 196.407226562 45 165.731445312 23 c 0
 145.754882812 9 133.841796875 0 98.841796875 0 c 0
 74.841796875 0 81.21875 30 105.21875 30 c 0
 116.21875 30 129.494140625 36 141.620117188 46 c 0
 160.020507812 62 166.610351562 93 153.5859375 107 c 0
 147.861328125 113 130.7109375 117 123.13671875 119 c 0
 111.774414062 122 113.325195312 134 122.174804688 138 c 0
 132.23828125 143 143.30078125 148 156.063476562 161 c 0
 171.251953125 176 175.440429688 191 163.991210938 203 c 0
 156.479492188 210 137.1171875 213 118.140625 199 c 0
 106.227539062 190 96.9765625 170 94.0009765625 156 c 0
 67.21875 30 l 0
 61.9052734375 5 48.841796875 0 38.841796875 0 c 0
EndSplineSet
EndChar

StartChar: ae
Encoding: 224 230 220
Width: 235
VWidth: 0
Flags: HMW
LayerCount: 2
Fore
SplineSet
106.151367188 77 m 0
 77.1513671875 77 l 0
 65.1513671875 77 57.0888671875 72 48.6005859375 65 c 0
 37.4755859375 55 36.5625 46 39.861328125 38 c 0
 46.0986328125 25 69.5234375 27 87.9248046875 43 c 0
 98.0498046875 53 103.387695312 64 106.151367188 77 c 0
204.528320312 107 m 0
 205.590820312 112 206.141601562 124 201.0546875 133 c 0
 192.817382812 146 178.030273438 147 163.0546875 133 c 0
 153.928710938 123 148.590820312 112 147.528320312 107 c 0
 204.528320312 107 l 0
212.151367188 77 m 0
 141.151367188 77 l 0
 139.025390625 67 136.049804688 53 139.349609375 45 c 0
 153.3984375 17 186.161132812 30 207.07421875 39 c 0
 222.774414062 47 230.5859375 32 216.823242188 19 c 0
 189.446289062 -11 127.595703125 -15 104.03515625 20 c 0
 65.4462890625 -11 6.021484375 -13 -4.02734375 15 c 0
 -13.650390625 45 -1.1240234375 71 19.4892578125 88 c 0
 42.5283203125 107 69.5283203125 107 81.5283203125 107 c 0
 112.528320312 107 l 0
 116.866210938 118 116.629882812 131 111.1171875 138 c 0
 100.243164062 148 70.392578125 144 62.1171875 138 c 0
 43.1416015625 124 30.455078125 149 51.005859375 161 c 0
 78.619140625 178 119.3203125 186 146.15625 157 c 0
 177.469726562 182 215.682617188 183 231.368164062 158 c 0
 242.541992188 140 241.653320312 117 238.677734375 103 c 0
 233.576171875 79 221.151367188 77 212.151367188 77 c 0
EndSplineSet
EndChar

StartChar: oe
Encoding: 225 339 221
Width: 235
VWidth: 0
Flags: HMW
LayerCount: 2
Fore
SplineSet
201.889648438 132 m 0
 191.715820312 150 175.141601562 152 154.889648438 132 c 0
 146.977539062 123 145.426757812 111 143.938476562 104 c 0
 202.938476562 104 l 0
 205.000976562 109 205.977539062 123 201.889648438 132 c 0
77.2724609375 35 m 0
 98.373046875 59 109.426757812 111 98.52734375 135 c 0
 91.291015625 148 81.291015625 148 68.52734375 135 c 0
 47.4267578125 111 36.373046875 59 47.2724609375 35 c 0
 54.5087890625 22 64.5087890625 22 77.2724609375 35 c 0
132.928710938 151 m 0
 169.21875 190 218.879882812 179 230.715820312 150 c 0
 238.315429688 134 234.638671875 112 231.875976562 99 c 0
 228.474609375 83 222.561523438 74 208.561523438 74 c 0
 137.561523438 74 l 0
 135.223632812 63 131.610351562 46 138.272460938 35 c 0
 146.87109375 19 177.721679688 23 196.97265625 43 c 0
 205.885742188 52 221.97265625 43 207.359375 26 c 0
 172.64453125 -15 115.431640625 -16 106.146484375 25 c 0
 74.64453125 -15 26.431640625 -16 12.359375 26 c 0
 -0.5634765625 64 8.4267578125 111 37.6533203125 145 c 0
 72.3681640625 186 115.155273438 185 132.928710938 151 c 0
EndSplineSet
EndChar

StartChar: eth
Encoding: 226 240 222
Width: 235
VWidth: 0
Flags: HMW
LayerCount: 2
Fore
SplineSet
64.21875 41 m 0
 78.9677734375 21 116.967773438 21 140.70703125 48 c 0
 161.80859375 72 166.184570312 102 153.223632812 121 c 0
 137.899414062 143 103.899414062 143 83.2861328125 126 c 0
 58.3974609375 103 50.4697265625 61 64.21875 41 c 0
196.866210938 204 m 0
 223.725585938 161 209.2578125 60 154.330078125 18 c 0
 110.103515625 -16 50.166015625 -11 27.818359375 25 c 0
 3.8955078125 63 19.1611328125 116 60.75 147 c 0
 99.701171875 175 142.126953125 177 170.663085938 156 c 0
 169.338867188 178 156.377929688 197 145.653320312 203 c 0
 128.46484375 188 l 0
 113.701171875 175 97.3154296875 192 112.078125 205 c 0
 121.778320312 213 l 0
 113.778320312 213 106.56640625 212 97.9287109375 209 c 0
 84.6533203125 203 76.6044921875 231 95.3056640625 239 c 0
 115.79296875 246 135.005859375 247 153.517578125 240 c 0
 175.556640625 259 l 0
 190.319335938 272 206.706054688 255 191.943359375 242 c 0
 173.754882812 227 l 0
 180.904296875 223 190.204101562 215 196.866210938 204 c 0
EndSplineSet
EndChar

StartChar: thorn
Encoding: 227 254 223
Width: 235
VWidth: 0
Flags: HMW
LayerCount: 2
Fore
SplineSet
4.580078125 -43 m 0
 13.580078125 -43 l 0
 68.419921875 215 l 0
 59.419921875 215 l 0
 35.419921875 215 41.796875 245 65.796875 245 c 0
 105.796875 245 l 0
 110.796875 245 113.946289062 241 112.883789062 236 c 0
 95.0283203125 152 l 0
 125.830078125 184 181.618164062 183 201.666015625 155 c 0
 230.588867188 117 222.686523438 61 172.758789062 19 c 0
 144.657226562 -5 89.89453125 -18 66.12109375 16 c 0
 53.580078125 -43 l 0
 78.580078125 -43 l 0
 102.580078125 -43 96.203125 -73 72.203125 -73 c 0
 -1.796875 -73 l 0
 -25.796875 -73 -19.419921875 -43 4.580078125 -43 c 0
166.627929688 136 m 0
 154.81640625 151 123.965820312 147 105.990234375 133 c 0
 84.1640625 115 73.0244140625 72 81.28515625 45 c 0
 90.7587890625 19 129.758789062 19 153.860351562 43 c 0
 176.749023438 66 185.739257812 113 166.627929688 136 c 0
EndSplineSet
EndChar

StartChar: eng
Encoding: 228 331 224
Width: 235
VWidth: 0
Flags: HMW
LayerCount: 2
Fore
SplineSet
176.265625 110 m 0
 186.680664062 159 131.193359375 152 101.178710938 119 c 0
 82.2607421875 30 l 0
 92.2607421875 30 100.473632812 31 104.411132812 26 c 0
 109.922851562 19 108.22265625 11 100.947265625 5 c 0
 94.884765625 0 87.884765625 0 78.884765625 0 c 0
 33.884765625 0 l 0
 23.884765625 0 21.884765625 0 18.947265625 5 c 0
 13.22265625 11 16.1357421875 20 23.4111328125 26 c 0
 29.4736328125 31 30.2607421875 30 42.2607421875 30 c 0
 65.8544921875 141 l 0
 55.8544921875 141 51.642578125 140 48.705078125 145 c 0
 43.98046875 151 45.1064453125 161 53.3818359375 167 c 0
 58.4443359375 172 64.2314453125 171 74.2314453125 171 c 0
 112.231445312 171 l 0
 108.405273438 153 l 0
 136.357421875 181 191.995117188 184 210.893554688 160 c 0
 220.555664062 149 220.516601562 130 216.052734375 109 c 0
 193.522460938 3 l 0
 187.5703125 -25 179.532226562 -44 161.34375 -59 c 0
 156.493164062 -63 151.85546875 -66 147.217773438 -69 c 0
 133.517578125 -77 120.666992188 -81 102.666992188 -81 c 0
 80.6669921875 -81 l 0
 70.6669921875 -81 63.6669921875 -81 60.517578125 -77 c 0
 55.005859375 -70 56.4931640625 -63 64.9814453125 -56 c 0
 69.8310546875 -52 77.0439453125 -51 87.0439453125 -51 c 0
 103.043945312 -51 l 0
 117.043945312 -51 127.681640625 -48 134.95703125 -42 c 0
 142.232421875 -36 147.145507812 -27 149.483398438 -16 c 0
 176.265625 110 l 0
EndSplineSet
EndChar

StartChar: oslash
Encoding: 231 248 227
Width: 235
VWidth: 0
Flags: HMW
LayerCount: 2
Fore
SplineSet
221.154296875 161 m 0
 205.752929688 145 l 0
 226.801757812 117 213.985351562 52 171.758789062 18 c 0
 139.232421875 -8 90.806640625 -10 62.1455078125 1 c 0
 50.806640625 -10 l 0
 28.34375 -31 6.806640625 -10 25.845703125 9 c 0
 36.18359375 20 l 0
 9.9853515625 52 22.8017578125 117 66.4541015625 153 c 0
 102.405273438 181 157.405273438 181 183.4296875 167 c 0
 196.193359375 180 l 0
 218.65625 201 240.193359375 180 221.154296875 161 c 0
90.3095703125 30 m 0
 110.034179688 24 132.883789062 28 149.498046875 45 c 0
 169.536132812 64 177.48828125 92 171.739257812 112 c 0
 90.3095703125 30 l 0
67.9853515625 52 m 0
 154.265625 138 l 0
 138.390625 148 111.178710938 147 88.71484375 126 c 0
 64.826171875 103 59.38671875 68 67.9853515625 52 c 0
EndSplineSet
EndChar

StartChar: ogonek
Encoding: 242 731 238
Width: 235
VWidth: 0
Flags: HMW
LayerCount: 2
Fore
SplineSet
151.893554688 0 m 0
 131.854492188 -19 120.94140625 -28 118.390625 -40 c 0
 124.052734375 -51 135.052734375 -51 156.028320312 -37 c 0
 168.94140625 -28 181.052734375 -51 159.077148438 -65 c 0
 123.401367188 -87 85.0771484375 -65 85.478515625 -49 c 0
 85.7294921875 -29 104.342773438 -12 117.893554688 0 c 0
 151.893554688 0 l 0
EndSplineSet
EndChar

StartChar: florin
Encoding: 251 402 244
Width: 235
VWidth: 0
Flags: HMW
LayerCount: 2
Fore
SplineSet
-12.400390625 -60 m 0
 -32.912109375 -53 -18.41015625 -13 2.1015625 -20 c 0
 19.826171875 -26 48.3388671875 -33 62.802734375 -12 c 0
 69.927734375 -2 76.75390625 16 79.7294921875 30 c 0
 103.323242188 141 l 0
 82.3232421875 141 l 0
 58.3232421875 141 64.7001953125 171 88.7001953125 171 c 0
 109.700195312 171 l 0
 114.801757812 195 l 0
 120.328125 221 134.454101562 231 142.728515625 237 c 0
 166.342773438 254 223.342773438 254 244.791992188 242 c 0
 259.090820312 234 230.501953125 203 219.202148438 211 c 0
 208.690429688 218 178.965820312 224 165.415039062 212 c 0
 159.352539062 207 155.864257812 200 154.1640625 192 c 0
 149.700195312 171 l 0
 202.700195312 171 l 0
 226.700195312 171 220.323242188 141 196.323242188 141 c 0
 143.323242188 141 l 0
 119.729492188 30 l 0
 113.991210938 3 105.463867188 -23 86.212890625 -43 c 0
 64.32421875 -66 16.26171875 -71 -12.400390625 -60 c 0
EndSplineSet
EndChar

StartChar: questiondown
Encoding: 252 191 245
Width: 235
VWidth: 0
Flags: HMW
LayerCount: 2
Fore
SplineSet
114.0078125 127 m 0
 100.771484375 140 104.59765625 158 122.935546875 169 c 0
 140.061523438 179 159.061523438 179 171.72265625 168 c 0
 184.959960938 155 181.133789062 137 162.795898438 126 c 0
 145.669921875 116 126.669921875 116 114.0078125 127 c 0
114.23046875 81 m 0
 119.33203125 105 149.33203125 105 144.23046875 81 c 0
 140.6171875 64 l 0
 137.428710938 49 125.428710938 49 113.428710938 49 c 0
 102.00390625 47 89.515625 40 82.8154296875 32 c 0
 63.7763671875 13 64.1005859375 -9 74.3369140625 -22 c 0
 86.1494140625 -37 115.936523438 -38 143.125 -23 c 0
 148.2265625 1 178.2265625 1 173.125 -23 c 0
 168.661132812 -44 l 0
 166.323242188 -55 145.897460938 -57 113.834960938 -62 c 0
 59.5595703125 -68 45.1103515625 -56 34.6611328125 -44 c 0
 19.4873046875 -26 19.7138671875 8 44.666015625 36 c 0
 57.853515625 51 95.2548828125 67 112.10546875 71 c 0
 114.23046875 81 l 0
EndSplineSet
EndChar

StartChar: dotlessi
Encoding: 253 305 246
Width: 235
VWidth: 0
Flags: HMW
LayerCount: 2
Fore
SplineSet
162.826171875 0 m 0
 39.826171875 0 l 0
 15.826171875 0 22.203125 30 46.203125 30 c 0
 86.203125 30 l 0
 109.796875 141 l 0
 82.796875 141 l 0
 58.796875 141 65.173828125 171 89.173828125 171 c 0
 147.173828125 171 l 0
 153.173828125 171 155.536132812 168 154.260742188 162 c 0
 126.203125 30 l 0
 169.203125 30 l 0
 193.203125 30 186.826171875 0 162.826171875 0 c 0
EndSplineSet
EndChar

StartChar: fi
Encoding: 254 64257 247
Width: 235
VWidth: 0
Flags: HMW
LayerCount: 2
Fore
SplineSet
183.381835938 0 m 0
 131.381835938 0 l 0
 161.352539062 141 l 0
 93.3525390625 141 l 0
 69.7587890625 30 l 0
 87.7587890625 30 l 0
 111.758789062 30 105.381835938 0 81.3818359375 0 c 0
 2.3818359375 0 l 0
 -21.6181640625 0 -15.2412109375 30 8.7587890625 30 c 0
 29.7587890625 30 l 0
 53.3525390625 141 l 0
 32.3525390625 141 l 0
 8.3525390625 141 14.7294921875 171 38.7294921875 171 c 0
 59.7294921875 171 l 0
 64.830078125 195 l 0
 70.357421875 221 84.482421875 231 92.7578125 237 c 0
 116.37109375 254 194.37109375 254 215.8203125 242 c 0
 230.120117188 234 201.53125 203 190.231445312 211 c 0
 179.719726562 218 128.994140625 224 115.444335938 212 c 0
 109.380859375 207 105.893554688 200 104.192382812 192 c 0
 99.7294921875 171 l 0
 198.729492188 171 l 0
 203.729492188 171 206.87890625 167 205.81640625 162 c 0
 177.758789062 30 l 0
 189.758789062 30 l 0
 213.758789062 30 207.381835938 0 183.381835938 0 c 0
EndSplineSet
EndChar

StartChar: fl
Encoding: 255 64258 248
Width: 235
VWidth: 0
Flags: HMW
LayerCount: 2
Fore
SplineSet
218.622070312 236 m 0
 174.8359375 30 l 0
 190.8359375 30 l 0
 214.8359375 30 208.458984375 0 184.458984375 0 c 0
 128.458984375 0 l 0
 158.4296875 141 l 0
 93.4296875 141 l 0
 69.8359375 30 l 0
 89.8359375 30 l 0
 113.8359375 30 107.458984375 0 83.458984375 0 c 0
 2.458984375 0 l 0
 -21.541015625 0 -15.1640625 30 8.8359375 30 c 0
 29.8359375 30 l 0
 53.4296875 141 l 0
 32.4296875 141 l 0
 8.4296875 141 14.806640625 171 38.806640625 171 c 0
 59.806640625 171 l 0
 64.9072265625 195 l 0
 70.4345703125 221 84.5595703125 231 92.8349609375 237 c 0
 116.448242188 254 173.810546875 251 197.53515625 245 c 0
 211.53515625 245 l 0
 216.53515625 245 219.685546875 241 218.622070312 236 c 0
115.521484375 212 m 0
 109.458007812 207 105.970703125 200 104.26953125 192 c 0
 99.806640625 171 l 0
 164.806640625 171 l 0
 173.733398438 213 l 0
 162.796875 218 129.072265625 224 115.521484375 212 c 0
EndSplineSet
EndChar

